<svg xmlns="http://www.w3.org/2000/svg" width="100%" height="100%" viewBox="0 0 1080 1920" preserveAspectRatio="xMidYMid meet" style="
    display: block;
    overflow: hidden;
    pointer-events: auto;" data--h-bstatus="0OBSERVED">

   <g pointer-events="all" data--h-bstatus="0OBSERVED">
      <g class="surah-group" data--h-bstatus="0OBSERVED">
         <path class="surah-path" d="m 546.40625,1448.416 c -0.47976,0 -0.94944,0.025 -1.40625,0.084 -5.859,0.76 -9.26186,8.2601 -12.63086,12.3301 -6.323,7.65 -13.47242,15.0199 -20.35742,22.1699 -4.601,4.77 -10.20372,9.98 -13.01172,16 12.254,3.99 29.88,11.2594 43,8.1094 5.358,-1.29 9.724,-6.009 14,-9.209 10.758,-8.07 21.04,-17.2104 32,-24.9004 -1.913,-6.94 -12.961,-11.7009 -19,-14.8809 -5.82469,-3.0656 -15.39742,-9.6719 -22.59375,-9.7031 z" id="path229" data--h-bstatus="0OBSERVED"></path>
         <text class="surah-name" x="533.5" y="1483.147949" data--h-bstatus="0OBSERVED">الفلق</text>
      </g>

      <g class="surah-group" data--h-bstatus="0OBSERVED">
         <path class="surah-path" d="m 635.76758,1436.8867 c -0.26762,0 -0.53727,0.029 -0.80664,0.084 -7.791,1.59 -15.42594,12.7895 -20.96094,17.9395 -14.68,13.65 -31.053,25.6092 -45.375,39.6992 -4.591,4.52 -10.798,7.4606 -13.625,13.3906 8.561,2.53 19.099,1 28,1 22.587,0 44.871,1.3095 65,-10.7305 6.527,-3.91 12.73425,-8.6695 17.90625,-14.2695 1.957,-2.12 4.60795,-4.85 4.25195,-8 -0.397,-3.51 -3.91134,-7.23 -5.90234,-10 -5.564,-7.75 -11.50891,-14.23 -18.25391,-21 -2.44031,-2.4469 -6.2201,-8.1367 -10.23437,-8.1133 z" id="path228" data--h-bstatus="0OBSERVED"></path>
         <text class="surah-name" x="612.5953063964844" y="1481.172546" data--h-bstatus="0OBSERVED">الناس</text>
      </g>

      <g class="surah-group" data--h-bstatus="0OBSERVED">
         <path class="surah-path" d="m 473,1434 c 0,14.76 -2.36494,31.59 1.41406,46 1.418,5.41 9.66394,13.1202 15.58594,12.9902 4.366,-0.1 8.93735,-5.3002 11.98438,-7.9902 8.997,-7.93 18.27899,-16.6898 25.75,-26.0898 2.293,-2.89 9.2849,-9.3403 7.1289,-13.4903 -1.96,-3.78 -10.19028,-4.3699 -13.86328,-5.4199 -14.813,-4.23 -32.638,-6 -48,-6 z" id="path227" data--h-bstatus="0OBSERVED"></path>
         <text class="surah-name" x="479.770004" y="1463.495849609375" data--h-bstatus="0OBSERVED">الإخلاص</text>
      </g>

      <g class="surah-group" data--h-bstatus="0OBSERVED">
         <path class="surah-path" d="m 461.16797,1419.8906 c -4.01564,-0.1012 -8.78697,1.3449 -12.16797,1.8399 -15.3,2.23 -29.232,8.3195 -44,12.2695 0.449,8.23 6.48705,13.45 11.99805,19 9.719,9.78 18.08795,18.7394 32.00195,22.1094 4.238,1.03 13.47648,4.9613 17.39648,1.8613 3.179,-2.51 0.70218,-9.5607 0.61914,-12.9707 -0.27199,-11.07 0.98538,-21.99 0.98438,-33 0,-3.48 0.77856,-8.7004 -3.14844,-10.4004 -1.09125,-0.47 -2.34504,-0.6752 -3.68359,-0.709 z" id="path226" data--h-bstatus="0OBSERVED"></path>
         <text class="surah-name" x="430.531387" y="1449.0125732421875" data--h-bstatus="0OBSERVED">المسد</text>
      </g>

      <g class="surah-group" data--h-bstatus="0OBSERVED">
         <path class="surah-path" d="m 573,1400 c -6.31,9.65 -11.612,19.9401 -18,29.5801 -2.242,3.38 -6.96175,8.8692 -6.46875,13.1992 0.312,2.73 3.35561,3.3414 5.47461,4.1914 4.753,1.9 9.53614,4.3784 13.99414,6.8984 5.322,3.01 10.59,6.0502 16,8.9102 2.373,1.25 5.172,3.4702 8,3.2402 4.333,-0.35 8.787,-5.4395 12,-8.0195 9.689,-7.78 19.067,-16.6 26,-27 -16.877,-12.71 -35.928,-26.48 -57,-31 z" id="path225" data--h-bstatus="0OBSERVED"></path>
         <text class="surah-name" x="569.247711" y="1437.018066" data--h-bstatus="0OBSERVED">الكافرون</text>
      </g>

      <g class="surah-group" data--h-bstatus="0OBSERVED">
         <path class="surah-path" d="m 491.86914,1387.3789 c -4.13125,-0.074 -8.12478,0.3257 -10.30078,2.2207 -3.072,2.68 -3.36775,7.6904 -4.21875,11.4004 -2.208,9.62 -3.34961,19.12 -3.34961,29 23.322,0 44.632,6.82 67,12 9.113,-12.82 22.613,-29.08 25,-45 -12.97,-3.2 -26.686,-7.5401 -40,-8.8301 -7.561,-0.73 -15.407,-0.1699 -23,-0.1699 -2.73,0 -6.99961,-0.5473 -11.13086,-0.6211 z" id="path224" data--h-bstatus="0OBSERVED"></path>
         <text class="surah-name" x="504" y="1414.6853637695312" data--h-bstatus="0OBSERVED">الكوثر</text>
      </g>

      <g class="surah-group" data--h-bstatus="0OBSERVED">
         <path class="surah-path" d="m 673,1379 c -3.862,13.38 -14.25575,26.08 -22.59375,37 -3.064,4.01 -9.42928,8.75 -10.23828,14 -0.581,3.77 3.46625,7.2603 5.90625,9.5703 7.129,6.75 14.11064,13.7897 20.30664,21.4297 1.892,2.33 5.05559,9.5801 8.68359,9.0801 2.57,-0.36 4.20602,-3.2208 5.66602,-5.0508 3.139,-3.92 6.74953,-7.4493 10.26953,-11.0293 5.237,-5.33 10.10923,-11.0301 15.11523,-16.5801 2.151,-2.38 5.39927,-5.1299 6.07227,-8.4199 0.985,-4.82 -4.21431,-11.26 -6.69531,-15 -7.796,-11.75 -18.50019,-30.28 -32.49219,-35 z" id="path223" data--h-bstatus="0OBSERVED"></path>
         <text class="surah-name" x="664.210876" y="1429.552368" data--h-bstatus="0OBSERVED">النصر</text>
      </g>

      <g class="surah-group" data--h-bstatus="0OBSERVED">
         <path class="surah-path" d="m 491,1341 c -5.721,2.42 -10.518,6.7195 -16,9.6895 -8.63,4.68 -17.734,8.0704 -27,11.2304 -26.127,8.92 -54.216,12.2101 -80,22.0801 7.048,11.65 15.67772,22.92 23.63672,34 2.42,3.37 5.12626,9.8409 8.82226,11.8809 2.547,1.41 6.08602,-0.2014 8.54102,-1.1114 7.053,-2.62 13.669,-4.8586 21,-6.6386 9.011,-2.19 17.81,-4.3008 27,-5.5508 3.274,-0.45 8.72833,0.3606 11.48633,-1.6094 4.151,-2.96 4.90872,-15.1907 5.76172,-19.9707 2.102,-11.78 5.70968,-22.8 9.80468,-34 2.354,-6.44 6.21327,-13.2 6.94727,-20 z" id="path222" data--h-bstatus="0OBSERVED"></path>
         <text class="surah-name" x="411.5" y="1399.718079" data--h-bstatus="0OBSERVED">الماعون</text>
      </g>

      <g class="surah-group" data--h-bstatus="0OBSERVED">
         <path class="surah-path" d="m 602.41406,1335.2012 c -1.07813,0.027 -2.04917,0.2772 -2.84961,0.8379 -3.719,2.61 -5.16934,12.7609 -6.52734,16.9609 -4.629,14.3 -13.07111,27.61 -17.03711,42 12.464,6.83 26.048,11.4397 38,19.1797 5.474,3.55 12.98125,11.4509 19.90625,11.4609 4.821,0 7.79214,-7.2706 10.11914,-10.6406 6.495,-9.41 13.77625,-18.26 19.78125,-28 2.235,-3.63 6.03883,-8.4202 4.54883,-12.9902 -1.6,-4.9 -8.35247,-8.9996 -12.35547,-11.8496 -11.822,-8.42 -25.659,-15.8701 -39,-21.5801 -3.25569,-1.3975 -9.91405,-5.4952 -14.58594,-5.3789 z" id="path221" data--h-bstatus="0OBSERVED"></path>
         <text class="surah-name" x="613.346161" y="1386.419678" data--h-bstatus="0OBSERVED">الفيل</text>
      </g>

      <g class="surah-group" data--h-bstatus="0OBSERVED">
         <path class="surah-path" d="m 385.04883,1326.0215 c -9.7814,-0.1375 -19.8775,7.7265 -28.04688,11.8984 -6.409,3.27 -12.52909,7.7204 -17.99609,12.4004 -2.172,1.87 -5.22892,4.4502 -4.79492,7.6602 0.761,5.62 10.76206,9.0486 14.78906,12.0586 3.852,2.87 8.05,6.9104 13,7.6504 6.944,1.03 15.407,-2.9896 22,-4.7696 16.016,-4.33 32.456,-6.9299 48,-12.9199 v -2 c -9.797,-6.66 -20.036,-12.4691 -29,-20.2891 -4.509,-3.93 -9.713,-10.7307 -16,-11.5507 -0.64862,-0.084 -1.29908,-0.1295 -1.95117,-0.1387 z" id="path220" data--h-bstatus="0OBSERVED"></path>
         <text class="surah-name" x="363.084671" y="1356.937683" data--h-bstatus="0OBSERVED">العاديات</text>
      </g>

      <g class="surah-group" data--h-bstatus="0OBSERVED">
         <path class="surah-path" d="m 514.94727,1322.5293 c -3.26413,-0.071 -6.45663,0.185 -8.61915,1.5 -3.96399,2.41 -5.93618,8.9407 -7.74218,12.9707 -4.567,10.2 -8.37096,20.48 -12.12696,31 -1.228,3.44 -5.94362,10.8304 -3.39062,14.4004 2.605,3.64 14.90364,1.5996 18.93164,1.5996 16.495,0 31.88,0.9504 48,4.6504 5.075,1.17 14.67316,6.0993 19.66016,3.2793 3.666,-2.07 4.94323,-8.3197 6.49023,-11.9297 4.684,-10.94 9.90869,-21.65 13.55469,-33 1.127,-3.51 4.79595,-10.9504 2.25195,-14.4004 -1.272,-1.72 -4.05898,-1.8498 -5.95898,-2.3398 -4.34,-1.13 -8.59505,-2.5793 -12.99805,-3.4493 -16.009,-3.19 -32.736,-3.8105 -49,-3.8105 -2.452,0 -5.78861,-0.3995 -9.05273,-0.4707 z" id="path219" data--h-bstatus="0OBSERVED"></path>
         <text class="surah-name" x="526.579437" y="1359.653442" data--h-bstatus="0OBSERVED">الهمزة</text>
      </g>

      <g class="surah-group" data--h-bstatus="0OBSERVED">
         <path class="surah-path" d="m 697,1317 c -1.401,11.08 -4.72464,21.8 -9.30664,32 -2.877,6.41 -8.23155,15 -8.93555,22 -0.485,4.81 5.13824,9.4002 8.24024,12.4902 8.47,8.42 15.331,17.8998 22.375,27.5098 2.102,2.87 5.90803,10.6103 10.45703,8.8203 2.393,-0.93 3.96403,-3.8203 5.33203,-5.8203 3.328,-4.88 6.45136,-9.77 9.19336,-15 3.94,-7.51 10.65181,-16.02 10.25781,-25 -0.266,-6.08 -5.14944,-12.34 -8.64844,-17 -7.132,-9.49 -14.65475,-18.4599 -22.71875,-27.1699 C 708.34809,1324.5401 704.139,1319.12 697,1317 Z" id="path218" data--h-bstatus="0OBSERVED"></path>
         <text class="surah-name" x="697.679138" y="1374.542969" data--h-bstatus="0OBSERVED">قريش</text>
      </g>

      <g class="surah-group" data--h-bstatus="0OBSERVED">
         <path class="surah-path" d="m 351.84375,1277.3203 c -4.66784,0.1214 -9.9275,3.2842 -13.84375,4.7305 -13.772,5.09 -28.839,12.4694 -40,22.1094 -3.533,3.05 -9.62281,6.8598 -10.38281,11.8398 -0.737,4.83 2.89596,8.9201 5.96093,12.0801 7.051,7.28 15.09788,13.97 23.42188,19.75 3.363,2.33 8.36014,7.69 12.82812,5.75 6.59801,-2.87 11.99994,-10.9607 18.21094,-14.9707 11.061,-7.14 23.59894,-11.1394 34.96094,-17.6094 -4.293,-11.1 -14.32147,-20.18 -19.73047,-31 -2.085,-4.17 -3.4065,-10.4607 -8.3125,-12.2207 -0.99037,-0.3544 -2.03609,-0.487 -3.11328,-0.459 z" id="path217" data--h-bstatus="0OBSERVED"></path>
         <text class="surah-name" x="319.260391" y="1317.655945" data--h-bstatus="0OBSERVED">الشرح</text>
      </g>

      <g class="surah-group" data--h-bstatus="0OBSERVED">
         <path class="surah-path" d="m 615,1272 c -3.659,12.89 -5.99795,26.02 -9.37695,39 -1.285,4.93 -5.04463,11.7604 -3.01563,16.9004 2.225,5.62 13.24958,8.36 18.39258,10.5 9.857,4.1 20.325,8.9394 29,15.1894 7.897,5.7 15.029,12.9402 25,14.4102 3.143,-13.58 9.98095,-26.4 13.62695,-40 1.145,-4.27 3.8253,-9.51 3.0293,-14 -1.471,-8.28 -11.30341,-12.2605 -17.56641,-16.2305 C 657.02084,1286.9395 635.427,1274.64 615,1272 Z" id="path216" data--h-bstatus="0OBSERVED"></path>
         <text class="surah-name" x="633.909882" y="1320" data--h-bstatus="0OBSERVED">العصر</text>
      </g>

      <g class="surah-group" data--h-bstatus="0OBSERVED">
         <path class="surah-path" d="m 520,1269 c -11.15,0.6 -21.026,10.7798 -31,15.3398 -17.49,7.99 -35.328,14.9993 -53,22.5293 -12.531,5.34 -25.473,11.8309 -39,14.1309 3.97,9.38 13.598,15.8501 22,21.0801 7.596,4.74 18.764,13.3405 28,13.5605 6.856,0.17 14.11705,-3.91 19.99805,-7 10.11,-5.33 20.7249,-13.3506 27.5039,-22.6406 6.491,-8.9 10.70158,-20.99 15.26758,-31 3.785,-8.29 8.97847,-16.89 10.23047,-26 z" id="path215" data--h-bstatus="0OBSERVED"></path>
         <text class="surah-name" x="443.5" y="1327.322876" data--h-bstatus="0OBSERVED">القارعة</text>
      </g>

      <g class="surah-group" data--h-bstatus="0OBSERVED">
         <path class="surah-path" d="m 545,1263 c -4.151,0 -9.04353,-0.3502 -12.89453,1.5098 -4.746,2.3 -6.44625,8.9302 -8.15625,13.4902 -2.882,7.68 -5.49559,15.5 -8.8086,23 -2.69898,6.11 -6.45362,12.29 -7.14062,19 20.119,-0.96 39.013,-0.2498 59,2.1602 5.025,0.6 10.1,1.2903 15,2.5703 3.596,0.95 8.08447,2.9294 11.85547,1.9394 4.401,-1.16 4.3622,-8.0499 5.1582,-11.6699 2.357,-10.71 5.25839,-21.3 7.65039,-32 0.807,-3.61 3.70952,-9.1795 0.72852,-12.4395 -2.133,-2.33 -6.47958,-2.7296 -9.39258,-3.4296 -8.706,-2.09 -18.059,-3.0709 -27,-3.1309 -8.667,-0.06 -17.283,-1 -26,-1 z" id="path214" data--h-bstatus="0OBSERVED"></path>
         <text class="surah-name" x="546.354309" y="1298.956909" data--h-bstatus="0OBSERVED">التكاثر</text>
      </g>

      <g class="surah-group" data--h-bstatus="0OBSERVED">
         <path class="surah-path" d="m 498,1240 c -32.237,4.08 -63.941,12.2503 -95,21.5703 -12.871,3.86 -25.852,8.6797 -39,11.4297 1.608,12.91 10.57323,25.23 18.61523,35 2.699,3.28 6.68477,9.1091 11.38477,9.2891 5.594,0.22 12.804,-4.6999 18,-6.5899 17.196,-6.27 34.109,-13.23 51,-20.25 12.093,-5.03 24.575,-10.1796 36,-16.5996 3.634,-2.05 10.29514,-4.5887 11.74414,-8.8887 1.04,-3.09 -1.76998,-5.7409 -3.45898,-7.9609 -3.956,-5.2 -7.17616,-10.82 -9.28516,-17 z" id="path213" data--h-bstatus="0OBSERVED"></path>
         <text class="surah-name" x="426.484528" y="1281.648132" data--h-bstatus="0OBSERVED">التين</text>
      </g>

      <g class="surah-group" data--h-bstatus="0OBSERVED">
         <path class="surah-path" d="m 340.80469,1228.3848 c -1.96824,0.027 -4.12319,0.915 -5.80469,1.455 -5.041,1.6 -10.073,2.9097 -15,4.8497 -8.58,3.38 -17.505,5.7206 -26,9.3906 -9.525,4.11 -18.612,9.4699 -28,13.9199 4.061,17.71 11.444,34.43 16,52 8.301,-1.9 13.243,-8.9591 20,-13.6191 9.375,-6.46 21.385,-12.7401 32,-16.8301 4.273,-1.64 8.617,-3.3714 13,-4.6914 2.213,-0.66 5.58991,-1.1792 6.87891,-3.3692 1.569,-2.66 -0.69918,-6.8602 -1.45118,-9.4902 -2.291,-8.03 -4.49906,-15.78 -6.03906,-24 -0.509,-2.72 -0.64512,-8.1205 -3.70312,-9.3105 -0.59025,-0.2275 -1.22478,-0.3136 -1.88086,-0.3047 z" id="path212" data--h-bstatus="0OBSERVED"></path>
         <text class="surah-name" x="295.209946" y="1269.1920776367188" data--h-bstatus="0OBSERVED">الغاشية</text>
      </g>

      <g class="surah-group" data--h-bstatus="0OBSERVED">
         <path class="surah-path" d="m 699,1224 c 0,20.09 2.008,39.91 2,60 -0.003,7.52 -3.90123,17.9402 -0.99023,24.9902 2.03,4.91 7.19823,7.7697 10.99023,11.1797 6.395,5.76 12.16012,12.2601 17.70312,18.8301 6.45101,7.64 11.18588,20.37 20.29688,25 12.243,-38.72 6.03588,-79.18 -17.57812,-112 C 723.73586,1241.32 712.466,1227.08 699,1224 Z" id="path211" data--h-bstatus="0OBSERVED"></path>
         <text class="surah-name" x="716.031006" y="1294" data--h-bstatus="0OBSERVED">البينة</text>
      </g>

      <g class="surah-group" data--h-bstatus="0OBSERVED">
         <path class="surah-path" d="m 408.23242,1210.9688 c -3.51185,0.088 -7.58142,1.7239 -10.23242,2.5214 -11.142,3.36 -22.755,5.3294 -34,8.3594 -3.711,1 -9.89281,1.5411 -11.88281,5.3711 -1.872,3.62 0.81265,9.2393 1.84765,12.7793 2.78,9.52 4.04816,19.56 7.03516,29 14.455,-3.02 28.833,-8.2095 43,-12.4395 6.022,-1.79 11.675,-4.0405 18,-4.5605 -1.242,-9.78 -3.81317,-19.31 -5.57617,-29 -0.613,-3.37 -0.8156,-8.8007 -3.9336,-10.9707 -1.18031,-0.8219 -2.66151,-1.1011 -4.25781,-1.0605 z" id="path210" data--h-bstatus="0OBSERVED"></path>
         <text class="surah-name" x="372.735245" y="1245.982361" data--h-bstatus="0OBSERVED">الأعلي</text>
      </g>

      <g class="surah-group" data--h-bstatus="0OBSERVED">
         <path class="surah-path" d="m 483.29297,1199.9277 c -0.64267,-0.021 -1.28871,-0.011 -1.91797,0.01 -0.83902,0.025 -1.64775,0.064 -2.375,0.064 -9.118,0 -17.98,1.6191 -27,2.8691 -10.655,1.48 -21.434,3.1709 -32,5.1309 0,9.73 2.74284,17.63 4.71484,27 0.76,3.62 0.35852,9.3705 3.60352,11.8105 4.107,3.09 10.32664,0.4799 14.68164,-0.6601 11.864,-3.1 24.036,-5.1208 36,-7.8008 3.607,-0.81 12.69081,-0.6094 14.88281,-3.9394 2.218,-3.37 -0.99265,-10.7902 -1.59765,-14.4102 -0.813,-4.87 -0.17577,-14.7604 -3.88477,-18.4004 -1.28587,-1.26 -3.17941,-1.6081 -5.10742,-1.6719 z" id="path209" data--h-bstatus="0OBSERVED"></path>
         <text class="surah-name" x="448.326996" y="1228.092834" data--h-bstatus="0OBSERVED">البلد</text>
      </g>

      <g class="surah-group" data--h-bstatus="0OBSERVED">
         <path class="surah-path" d="m 639.99805,1199.5352 c -2.03315,-0.064 -3.92655,0.3699 -5.38867,1.7949 -4.18602,4.09 -6.29502,11.3199 -8.29102,16.6699 -5.946,15.94 -9.31636,32.96 -9.31836,50 10.624,1.37 19.474,5.9993 29,10.5293 7.728,3.67 15.58662,6.7615 23.01562,11.0215 8.202,4.7 15.36238,11.7292 24.98438,13.4492 0.072,-8.76 2.20037,-17.18 1.98438,-26 -0.28603,-11.68 -2.68773,-23.32 -2.96876,-35 -0.139,-5.74 4.21235,-16.9092 1.15235,-21.6992 -2.478,-3.88 -8.15797,-6.2817 -12.16797,-8.1817 -10.425,-4.94 -20.755,-8.0882 -32,-10.4082 -2.83375,-0.5812 -6.61337,-2.0696 -10.00195,-2.1757 z" id="path208" data--h-bstatus="0OBSERVED"></path>
         <text class="surah-name" x="642.499878" y="1251.2645874023438" data--h-bstatus="0OBSERVED">الزلزلة</text>
      </g>

      <g class="surah-group" data--h-bstatus="0OBSERVED">
         <path class="surah-path" d="m 608.96289,1197.9023 c -6.29087,0.145 -12.56939,0.8629 -18.96289,2.3379 -3.314,0.76 -8.70923,0.9695 -11.49023,2.9395 -2.804,1.98 -3.96619,6.9503 -5.74219,9.8203 -3.673,5.93 -7.99664,11.94 -12.80664,17 -7.683,8.08 -21.65794,17.55 -23.96094,29 7.18,0.85 13.862,-1.5001 21,-0.8301 17.938,1.68 36.047,6.0601 54,6.8301 0.408,-5.16 1.90508,-9.94 2.83008,-15 1.693,-9.26 2.64184,-19.07 5.71484,-28 2.626,-7.63 7.64408,-14.92 8.45508,-23 -6.443,-0.815 -12.74623,-1.2427 -19.03711,-1.0977 z" id="path207" data--h-bstatus="0OBSERVED"></path>
         <text class="surah-name" x="577" y="1237.437195" data--h-bstatus="0OBSERVED">القدر</text>
      </g>

      <g class="surah-group" data--h-bstatus="0OBSERVED">
         <path class="surah-path" d="m 331.30078,1171.5547 c -0.80336,-0.036 -1.62987,-0.026 -2.46875,0.02 -5.5925,0.3066 -11.77078,2.2457 -15.83203,3.3457 -19.737,5.34 -38.506,15.2298 -54,28.5098 -4.383,3.75 -12.78211,9.7503 -14.28711,15.5703 -1.031,3.99 2.88105,8.04 4.99805,11 5.155,7.22 10.79706,14.35 13.28906,23 8.453,-0.87 16.397,-7.1202 24,-10.7402 10.812,-5.14 22.78,-8.2793 34,-12.4493 5.78,-2.15 16.04248,-2.9097 20.39648,-7.5097 2.383,-2.52 1.60352,-7.1308 1.60352,-10.3008 0,-9.36 -1.35417,-18.73 -2.57617,-28 -0.435,-3.3 0.46981,-8.5997 -2.74219,-10.6797 -1.76231,-1.1446 -3.97076,-1.6581 -6.38086,-1.7656 z" id="path206" data--h-bstatus="0OBSERVED"></path>
         <text class="surah-name" x="276.832466" y="1215.266724" data--h-bstatus="0OBSERVED">المرسلات</text>
      </g>

      <g class="surah-group" data--h-bstatus="0OBSERVED">
         <path class="surah-path" d="m 742.75,1167.5039 c -0.47378,0.017 -0.91991,0.09 -1.33203,0.2266 -2.369,0.79 -3.25136,4.3095 -4.31836,6.2695 -2.797,5.13 -5.89977,10.3 -9.38477,15 -4.776,6.43 -10.0699,12.5801 -15.3789,18.5801 -2.056,2.32 -6.1778,6.0899 -6.13282,9.4199 0.078,5.77 11.85593,12.0397 15.79493,15.4297 10.167,8.75 18.221,20.8603 24.625,32.5703 3.548,6.49 5.76595,16.15 12.37695,20 8.154,-14.32 16.85167,-26.98 27.01367,-40 5.881,-7.54 14.65192,-16.46 17.04492,-26 1.549,-6.17 -3.30395,-12.47 -6.87695,-17 -9.67,-12.26 -24.10464,-21.5495 -38.18164,-28.0195 -3.52894,-1.6222 -10.67017,-6.6374 -15.25,-6.4766 z" id="path205" data--h-bstatus="0OBSERVED"></path>
         <text class="surah-name" x="739.7789" y="1220.250061" data--h-bstatus="0OBSERVED">الضحي</text>
      </g>

      <g class="surah-group" data--h-bstatus="0OBSERVED">
         <path class="surah-path" d="m 401.36328,1155.2539 c -3.99365,0.012 -8.95891,2.2177 -12.36328,2.957 -14.102,3.07 -27.922,7.5591 -42,10.7891 0,17.18 3.266,33.9 4,51 15.037,-1.9 30.46,-5.9092 45,-10.1992 4.613,-1.36 11.93981,-2.1215 15.38281,-5.7715 2.787,-2.96 0.15133,-8.6893 -0.63867,-12.0293 -1.985,-8.41 -2.0493,-17.42 -2.6543,-26 -0.269,-3.81 0.34157,-8.7794 -4.14843,-10.3594 -0.78713,-0.2756 -1.65652,-0.3896 -2.57813,-0.3867 z" id="path204" data--h-bstatus="0OBSERVED"></path>
         <text class="surah-name" x="363.815781" y="1193.626953" data--h-bstatus="0OBSERVED">الطارق</text>
      </g>

      <g class="surah-group" data--h-bstatus="0OBSERVED">
         <path class="surah-path" d="m 487,1153 c -1.522,7.33 3.61092,17.45 4.91992,25 3.579,20.66 3.581,42.52 12.25,62 2.572,5.78 6.272,10.9709 10.125,15.9609 1.844,2.38 4.31092,5.3982 7.66992,5.3282 2.7,-0.06 4.37502,-2.4086 5.91602,-4.3086 3.477,-4.28 6.64006,-8.8405 10.28906,-12.9805 12.082,-13.71 27.30992,-26.55 33.75196,-44 1.96499,-5.32 5.1306,-15.7405 1.4746,-20.8105 -4.523,-6.28 -14.56048,-8.43 -21.39648,-11 -21.102,-7.92 -43.333,-10.0295 -65,-15.1895 z" id="path203" data--h-bstatus="0OBSERVED"></path>
         <text class="surah-name" x="517.898209" y="1207.1452026367188" data--h-bstatus="0OBSERVED">العلق</text>
      </g>

      <g class="surah-group" data--h-bstatus="0OBSERVED">
         <path class="surah-path" d="m 451,1150.5898 c -9.407,0.34 -18.632,1.6804 -28,2.3204 -2.851,0.2 -7.93666,-0.8806 -9.97266,1.6894 -2.111,2.67 -1.00751,8.3204 -0.60351,11.4004 1.19,9.06 2.91439,17.96 4.15039,27 0.694,5.08 -0.11836,9.9495 6.43164,9.9395 14.922,-0.01 30.07914,-5.87 44.99414,-6.92 4.357,-0.3 8.624,-0.9695 13,-1.0195 1.981,-0.02 4.72958,0.3107 6.39258,-1.0293 3.423,-2.76 0.0627,-14.2207 -0.6543,-17.9707 -1.185,-6.2 -3.18389,-18.1504 -8.21289,-22.4004 -2.573,-2.17 -6.41039,-1.5394 -9.52539,-1.6094 -6.005,-0.15 -11.968,-1.6104 -18,-1.4004 z" id="path202" data--h-bstatus="0OBSERVED"></path>
         <text class="surah-name" x="436.338882" y="1179.754395" data--h-bstatus="0OBSERVED">الفجر</text>
      </g>

      <g class="surah-group" data--h-bstatus="0OBSERVED">
         <path class="surah-path" d="m 673.30859,1145.9238 c -1.41017,-0.048 -2.74121,0.1333 -3.91797,0.6758 -3.93898,1.83 -6.03079,8.8104 -7.96679,12.4004 -6.141,11.41 -15.80383,22.61 -19.42383,35 7.742,2.9 16.131,3.9795 24,6.5195 11.313,3.65 22.488,8.9705 33,14.4805 12.976,-15.69 29.993,-29.58 36,-50 -14.404,-8.38 -32.781,-12.69 -49,-16 -3.5295,-0.72 -8.46089,-2.9313 -12.69141,-3.0762 z" id="path201" data--h-bstatus="0OBSERVED"></path>
         <text class="surah-name" x="679.5" y="1180.458251953125" data--h-bstatus="0OBSERVED">الليل</text>
      </g>

      <g class="surah-group" data--h-bstatus="0OBSERVED">
         <path class="surah-path" d="m 247,1140 c -11.819,3.51 -23.50272,17.4 -30.76172,27 -2.569,3.4 -6.50222,8.42 -5.69922,13 1.183,6.75 10.86092,14.03 15.29492,19 3.391,3.8 9.68918,14.3809 15.07618,14.9609 3.539,0.39 6.21231,-5.7809 8.19531,-7.9609 6.288,-6.92 14.03558,-12.4499 21.89258,-17.4199 2.571,-1.63 6.976,-3.8093 6.125,-7.5293 -1.188,-5.2 -8.52791,-11.2106 -12.00391,-15.1406 C 258.24414,1158.1402 252.124,1149 247,1140 Z" id="path200" data--h-bstatus="0OBSERVED"></path>
         <text class="surah-name" x="226.831711" y="1182.989319" data--h-bstatus="0OBSERVED">الإنسان</text>
      </g>

      <g class="surah-group" data--h-bstatus="0OBSERVED">
         <path class="surah-path" d="m 595.0957,1137.4766 c -4.04037,-0.047 -7.90465,0.5637 -9.84765,2.8437 -3.438,4.03 -3.80653,9.6797 -4.51953,14.6797 -1.936,13.58 1.00848,27.26 -0.72852,41 11.737,0 23.283,-2 35,-2 5.382,0 14.87687,1.2206 19.67188,-1.3594 4.16097,-2.24 6.70954,-8.8106 9.18554,-12.6406 7.107,-10.99 15.64458,-22.21 19.14258,-35 -18.167,-6.16 -38.216,-3.9599 -57,-6.4199 -2.6475,-0.35 -6.86392,-1.056 -10.9043,-1.1035 z" id="path199" data--h-bstatus="0OBSERVED"></path>
         <text class="surah-name" x="600.5" y="1171.737061" data--h-bstatus="0OBSERVED">الشمس</text>
      </g>

      <g class="surah-group" data--h-bstatus="0OBSERVED">
         <path class="surah-path" d="m 809.11328,1105.5312 c -4.01095,-0.1657 -10.06884,2.2907 -13.11328,2.8594 -13.523,2.53 -27.234,4.6094 -41,4.6094 -0.219,10.6 -3.00616,20.87 -5.91016,31 -1.389,4.85 -4.65759,10.7905 -3.68359,15.9805 1.092,5.81 11.01275,8.299 15.59375,10.789 10.432,5.67 22.05505,11.5202 30.99805,19.4102 5.961,5.27 9.91995,14.3403 17.00195,17.8203 1.896,-5.69 4.49984,-11.16 5.96484,-17 4.98,-19.85 5.30399,-40.82 2.45899,-61 -0.841,-5.97 -1.10389,-12.16 -2.71289,-18 -0.551,-2 -1.26899,-4.7509 -3.20899,-5.8809 -0.64537,-0.3731 -1.46307,-0.5495 -2.38867,-0.5879 z" id="path198" data--h-bstatus="0OBSERVED"></path>
         <text class="surah-name" x="767.22525" y="1150.761536" data--h-bstatus="0OBSERVED">الانشقاق</text>
      </g>

      <g class="surah-group" data--h-bstatus="0OBSERVED">
         <path class="surah-path" d="m 685,1104 c -3.245,8.6 -6.07041,17.38 -9.31641,26 -1.015,2.7 -3.23711,6.7595 -2.03711,9.6895 1.598,3.89 12.63652,4.9714 16.35352,5.9414 16.038,4.17 31.764,10.0091 48,13.3691 5.465,-9.61 7.60033,-21.24 9.61133,-32 0.781,-4.18 2.606,-10.0304 -1.125,-13.4004 -3.856,-3.48 -12.66433,-1.3095 -17.48633,-1.7695 -14.904,-1.42 -29.52,-4.0801 -44,-7.8301 z" id="path197" data--h-bstatus="0OBSERVED"></path>
         <text class="surah-name" x="697.02533" y="1131.5" data--h-bstatus="0OBSERVED">التحريم</text>
      </g>

      <g class="surah-group" data--h-bstatus="0OBSERVED">
         <path class="surah-path" d="m 313.55078,1101.5156 c -6.04515,0.1329 -14.21445,5.1616 -18.7207,7.6641 -14.782,8.2 -29.14008,14.6703 -42.83008,24.8203 3.826,13 15.27714,23.97 23.86914,34 2.957,3.45 6.28252,9.7498 11.14648,10.5898 4.87602,0.84 10.41238,-3.1396 14.98438,-4.4296 12.218,-3.46 24.406,-6.5702 37,-8.1602 -0.396,-9.2 -3.76919,-18.27 -6.49219,-27 -2.402,-7.71 -4.34109,-15.49 -7.37109,-23 -1.916,-4.75 -3.41758,-12.7007 -9.14258,-14.2207 -0.76,-0.2025 -1.57976,-0.2827 -2.44336,-0.2637 z" id="path196" data--h-bstatus="0OBSERVED"></path>
         <text class="surah-name" x="281.5" y="1146.109131" data--h-bstatus="0OBSERVED">البروج</text>
      </g>

      <g class="surah-group" data--h-bstatus="0OBSERVED">
         <path class="surah-path" d="m 541,1091 c -2.293,17.02 -10.82084,32.22 -8.71484,50 0.667,5.64 1.08414,11.3091 5.24414,15.6191 3.885,4.02 9.4107,5.14 14.4707,6.92 7.135,2.52 13.856,6.0309 21,8.4609 3.137,-10.61 0.40344,-21.38 5.39844,-32 5.562,-11.82 17.65456,-19.32 22.60156,-31 -12.07,-6.58 -25.768,-10.4109 -39,-13.8809 -6.983,-1.84 -13.721,-3.9691 -21,-4.1191 z" id="path195" data--h-bstatus="0OBSERVED"></path>
         <text class="surah-name" x="543.476837" y="1131.5000610351562" data--h-bstatus="0OBSERVED">التكوير</text>
      </g>

      <g class="surah-group" data--h-bstatus="0OBSERVED">
         <path class="surah-path" d="m 385.23047,1083.875 c -1.8414,0.065 -3.66672,0.3297 -5.23047,0.5547 -13.388,1.92 -26.927,5.0112 -40,8.4512 -3.379,0.9 -11.79842,1.9888 -13.35742,5.5488 -1.777,4.06 2.03142,10.7703 3.35742,14.5703 4.39,12.58 10.27728,24.82 12.73828,38 0.808,4.33 -0.17575,14.6197 6.28125,13.9297 6.093,-0.66 12.18147,-4.0704 17.98047,-5.9004 7.444,-2.36 15.34,-3.7485 23,-5.2285 3.961,-0.76 11.41948,-0.8001 13.39648,-5.0801 1.492,-3.23 0.60452,-8.2507 0.60352,-11.7207 -0.005,-12.16 -3.40028,-24.2 -6.11328,-36 -1.077,-4.69 -0.93299,-10.9997 -4.45899,-14.6797 -2.01562,-2.1062 -5.12827,-2.5534 -8.19726,-2.4453 z" id="path194" data--h-bstatus="0OBSERVED"></path>
         <text class="surah-name" x="359.220795" y="1126.411438" data--h-bstatus="0OBSERVED">النبأ</text>
      </g>

      <g class="surah-group" data--h-bstatus="0OBSERVED">
         <path class="surah-path" d="m 480.66992,1080.7539 c -1.96042,-0.062 -3.77265,0.2404 -5.0664,1.2754 -2.315,1.85 -1.17368,5.5207 -0.88868,7.9707 0.732,6.31 1.43114,12.67 2.11914,19 0.833,7.66 1.3778,15.33 2.0918,23 0.409,4.4 0.46989,10.0395 3.58789,13.5195 3.626,4.05 9.49633,4.1604 14.48633,4.9004 10.286,1.52 20.901,3.0901 31,5.5801 1.551,-6.14 -1.22894,-12.64 -0.96094,-19 0.417,-9.88 2.79972,-19.37 4.76172,-29 0.904,-4.44 5.43169,-13.3003 3.55469,-17.5703 -1.541,-3.5 -9.15847,-3.2389 -12.35547,-3.8789 -10.949,-2.18 -22.069,-2.2502 -33,-4.1602 -2.3825,-0.4187 -6.06271,-1.5339 -9.33008,-1.6367 z" id="path193" data--h-bstatus="0OBSERVED"></path>
         <text class="surah-name" x="489.994354" y="1118.3731079101562" data--h-bstatus="0OBSERVED">عبس</text>
      </g>

      <g class="surah-group" data--h-bstatus="0OBSERVED">
         <path class="surah-path" d="m 628.25391,1080.5762 c -0.32873,0.013 -0.65508,0.066 -0.97852,0.164 -3.908,1.17 -6.59598,10.9198 -8.58398,14.2598 -8.189,13.76 -20.97141,24.15 -28.69141,38 8.233,2.43 18.397,1.4998 27,2.0898 10.351,0.71 20.618,2.5204 31,2.9004 4.611,0.17 14.5455,3.3003 18.4375,0.2403 1.982,-1.56 2.64225,-5.0205 3.65625,-7.2305 2.979,-6.48 5.3262,-13.18 7.4082,-20 0.867,-2.84 2.02063,-5.9901 -0.10937,-8.5801 -1.944,-2.37 -5.63158,-3.2092 -8.39258,-4.1992 -6.412,-2.3 -12.817,-4.4298 -19,-7.3398 -5.406,-2.54 -10.674,-5.46 -16,-8.17 -1.58031,-0.8043 -3.51285,-2.066 -5.41602,-2.1347 -0.10979,0 -0.2205,0 -0.33007,0 z" id="path192" data--h-bstatus="0OBSERVED"></path>
         <text class="surah-name" x="622.301605" y="1117.07135" data--h-bstatus="0OBSERVED">الانفطار</text>
      </g>

      <g class="surah-group" data--h-bstatus="0OBSERVED">
         <path class="surah-path" d="M 458.03125,1079.5508 C 454.72625,1079.567 451.302,1080 449,1080 c -16.724,0 -33.411,0.9 -50,3 1.401,16.07 7.21778,31.9 9.05078,48 0.578,5.08 0.0498,14.7598 5.33984,17.5898 5.21002,2.79 13.22538,-1.04 18.60938,-1.5 14.416,-1.23 28.53,-0.09 43,-0.09 -0.128,-15.42 -4.60638,-30.55 -4.98438,-46 -0.14298,-5.82 1.18204,-14.9704 -3.66796,-19.4004 -1.826,-1.665 -5.01141,-2.0651 -8.31641,-2.0488 z" id="path191" data--h-bstatus="0OBSERVED"></path>
         <text class="surah-name" x="417" y="1118.574707" data--h-bstatus="0OBSERVED">النازعات</text>
      </g>

      <g class="surah-group" data--h-bstatus="0OBSERVED">
         <path class="surah-path" d="m 217,1076 c -7.668,1.48 -12.2233,7.41 -17.1543,13 -6.448,7.31 -13.06647,14.44 -19.23047,22 -2.798,3.43 -8.95573,9.28 -8.80273,14 0.14,4.31 4.39775,9.37 6.46875,13 4.978,8.73 10.83114,17.16 17.11914,25 3.376,4.21 6.68361,8.62 11.59961,11 3.712,-9.68 11.203,-17.0005 19,-23.5605 4.833,-4.07 12.18553,-8.1395 14.39453,-14.4395 2.193,-6.25 -3.58011,-13.74 -6.28711,-19 -6.83,-13.27 -12.56642,-26.8 -17.10742,-41 z" id="path190" data--h-bstatus="0OBSERVED"></path>
         <text class="surah-name" x="195.345459" y="1129" data--h-bstatus="0OBSERVED">القلم</text>
      </g>

      <g class="surah-group" data--h-bstatus="0OBSERVED">
         <path class="surah-path" d="m 696.14844,1059.8203 c -3.377,-0.08 -3.55728,4.7697 -3.86328,7.1797 -0.991,7.82 -1.75221,15.31 -3.65821,23 -0.654,2.64 -2.38776,6.8305 -0.01,9.0605 2.022,1.9 5.80981,1.8994 8.38281,2.3594 6.357,1.16 12.592,2.5592 19,3.4492 24.22,3.37 46.784,3.6718 71,0.2618 5.77,-0.81 11.318,-2.2307 17,-3.4707 2.387,-0.52 5.55148,-0.5804 7.39648,-2.4004 2.254,-2.23 1.60252,-6.3998 1.60352,-9.2598 0.003,-7.52 1.219,-15.61 0,-23 -5.948,0.52 -11.181,3.3608 -17,4.5508 -11.771,2.41 -23.012,3.4492 -35,3.4492 -15.877,0 -31.849,-2.7395 -47,-7.4395 -5.518,-1.71 -12.18156,-7.6102 -17.85156,-7.7402 z" id="path189" data--h-bstatus="0OBSERVED"></path>
         <text class="surah-name" x="736.472382" y="1094.683105" data--h-bstatus="0OBSERVED">المدثر</text>
      </g>

      <g class="surah-group" data--h-bstatus="0OBSERVED">
         <path class="surah-path" d="m 615.99219,1036.6133 c -4.87209,0.1693 -10.78116,1.8755 -13.99219,2.2168 -6.55,0.71 -13.419,2.0898 -20,2.0898 -9.978,0 -20.125,-2.6699 -30,-3.9199 0,10.88 -0.0533,21.31 -2.36133,32 -0.911,4.22 -4.88509,11.2903 -2.99609,15.5703 1.025,2.32 4.19837,2.5793 6.35937,3.0293 5.818,1.21 11.31205,2.851 16.99805,4.541 8.42,2.52 16.722,5.5989 25,8.5489 2.97,1.06 7.46709,3.8414 10.62109,2.1914 3.474,-1.82 5.52496,-7.6409 7.37696,-10.8809 6.941,-12.15 10.64333,-24 10.98633,-38 0.095,-3.86 1.64443,-13.2407 -1.72657,-15.9707 -1.05175,-0.8525 -2.53783,-1.2613 -4.25195,-1.3867 -0.6428,-0.047 -1.31766,-0.053 -2.01367,-0.029 z" id="path188" data--h-bstatus="0OBSERVED"></path>
         <text class="surah-name" x="571.280609" y="1069.9960327148438" data--h-bstatus="0OBSERVED">المزمل</text>
      </g>

      <g class="surah-group" data--h-bstatus="0OBSERVED">
         <path class="surah-path" d="m 299,1026 c -7.606,0.16 -14.242,3.6604 -21,6.9004 -13.483,6.44 -26.575,13.9595 -39,22.2695 -5.314,3.55 -14.26942,8.3801 -16.35742,14.8301 -2.771,8.56 6.23364,21.39 9.30664,29 3.068,7.6 6.79264,14.93 10.93164,22 1.301,2.22 2.70853,6.4191 5.39453,7.2891 5.195,1.68 14.5107,-6.9288 18.7207,-9.4688 8.045,-4.86 16.54591,-8.1906 25.00391,-12.1406 8.085,-3.78 15.125,-7.8197 24,-9.6797 -1.984,-24.29 -16.997,-46.27 -17,-71 z" id="path187" data--h-bstatus="0OBSERVED"></path>
         <text class="surah-name" x="254.060005" y="1083.25238" data--h-bstatus="0OBSERVED">الحاقة</text>
      </g>

      <g class="surah-group" data--h-bstatus="0OBSERVED">
         <path class="surah-path" d="m 761.64648,1023.1309 c -0.83354,0.016 -1.66215,0.156 -2.47265,0.4785 -3.471,1.38 -5.64761,5.5908 -7.97461,8.3008 -4.016,4.68 -8.57428,9.1399 -13.23828,13.1699 -6.401,5.54 -15.87594,10.1699 -17.96094,18.9199 4.916,0.43 9.211,2.5308 14,3.5508 7.505,1.59 15.367,2.5493 23,3.2793 10.928,1.04 21.277,-1.1492 32,-2.6992 8.431,-1.21 21.53123,-3.8418 27.49023,-10.5118 5.513,-6.17 7.01577,-19.6891 8.50977,-27.6191 -13.688,0 -27.509,2.1209 -41,-1.0391 -4.987,-1.17 -10.135,-2.4312 -15,-4.0312 -2.30025,-0.7575 -4.85288,-1.8457 -7.35352,-1.7988 z" id="path186" data--h-bstatus="0OBSERVED"></path>
         <text class="surah-name" x="764.5" y="1054.114929" data--h-bstatus="0OBSERVED">الملك</text>
      </g>

      <g class="surah-group" data--h-bstatus="0OBSERVED">
         <path class="surah-path" d="m 479,1011 c -0.311,15.04 -3.37506,29.96 -4.03906,45 -0.234,5.29 -2.50058,11.8896 0.35742,16.8496 2.338,4.06 8.62564,3.3411 12.68164,3.8711 11.827,1.53 24.436,1.92 36,4.75 4.057,1 10.85541,4.0699 14.56641,0.9199 3.748,-3.17 4.70886,-12.7606 6.00586,-17.3906 2.141,-7.64 5.02696,-21.8002 0.41796,-28.9102 -3.914,-6.03 -12.58623,-8.6292 -18.99023,-10.9492 -15.297,-5.54 -31.041,-10.8506 -47,-14.1406 z" id="path185" data--h-bstatus="0OBSERVED"></path>
         <text class="surah-name" x="500.669571" y="1052.387817" data--h-bstatus="0OBSERVED">الجن</text>
      </g>

      <g class="surah-group" data--h-bstatus="0OBSERVED">
         <path class="surah-path" d="m 375.99609,1004.7109 c -17.443,-0.09 -36.22009,5.0195 -52.99609,9.4395 -4.463,1.18 -14.23566,2.2393 -16.97266,6.2793 -2.549,3.77 -0.39734,10.4203 -0.0273,14.5703 1.255,14.07 5.89555,29.78 10.81055,43 1.826,4.91 3.77709,13.1798 10.20507,13.5898 4.74602,0.29 10.37638,-2.6089 14.98438,-3.7089 10.945,-2.6 21.901,-4.9308 33,-6.8008 3.831,-0.64 12.48658,-0.2509 14.39258,-4.3809 2.14,-4.64 -0.74166,-13.7192 -1.22266,-18.6992 -1.416,-14.63 -3.74257,-29.31 -4.18554,-44 -0.16902,-5.58 -1.94029,-9.2491 -7.98829,-9.2891 z" id="path184" data--h-bstatus="0OBSERVED"></path>
         <text class="surah-name" x="330.486847" y="1051.159912" data--h-bstatus="0OBSERVED">المعارج</text>
      </g>

      <g class="surah-group" data--h-bstatus="0OBSERVED">
         <path class="surah-path" d="m 397.85547,1003.416 c -2.5704,0.095 -4.86783,0.5145 -6.25195,1.6133 -2.315,1.83 -1.67646,6.3907 -1.56446,8.9707 0.374,8.63 1.77964,17.42 2.80664,26 0.999,8.35 2.28913,16.69 3.57813,25 0.485,3.13 0.55382,7.8904 2.71679,10.4004 3.06401,3.55 10.90538,0.8287 14.85938,0.6387 8.321,-0.41 16.68,-1.9196 25,-2.0196 4.368,-0.06 8.633,0.9205 13,0.9805 3.706,0.04 11.32248,1.4007 14.39648,-1.0293 1.904,-1.5 1.72235,-4.8007 2.02735,-6.9707 0.932,-6.66 1.129,-13.36 2,-20 1.091,-8.3 0.97308,-16.69 2.33008,-25 0.479,-2.93 2.44375,-7.8302 0.46875,-10.4902 -2.838,-3.81 -11.88766,-4.24 -16.22266,-4.92 -15.447,-2.42 -31.391,-2.5898 -47,-2.5898 -2.82063,0 -7.86053,-0.7427 -12.14453,-0.584 z" id="path183" data--h-bstatus="0OBSERVED"></path>
         <text class="surah-name" x="421.980164" y="1045.304108" data--h-bstatus="0OBSERVED">نوح</text>
      </g>

      <g class="surah-group" data--h-bstatus="0OBSERVED">
         <path class="surah-path" d="m 626,999 c 1.463,7.88 1.39792,16.02 2.16992,24 0.894,9.24 2.82227,18.71 2.82227,28 0,6.4 -5.04977,16.7294 -2.38477,22.6094 1.454,3.21 6.48358,5.0511 9.39258,6.6211 9.335,5.04 19.07,9.1103 29,12.8203 3.294,1.23 8.99508,4.62 12.58008,3.25 2.835,-1.08 3.59167,-5.7408 4.26367,-8.3008 1.785,-6.79 2.90717,-14.06 4.07617,-21 0.523,-3.1 1.57181,-6.7802 0.75781,-9.9102 -1.658,-6.37 -13.80073,-10.7489 -18.67773,-14.7089 -8.185,-6.64 -16.75308,-13.5609 -23.83008,-21.3809 -6.567,-7.26 -12.15192,-16.3 -20.16992,-22 z" id="path182" data--h-bstatus="0OBSERVED"></path>
         <text class="surah-name" x="641.488464" y="1066.810608" data--h-bstatus="0OBSERVED">القيامة</text>
      </g>

      <g class="surah-group" data--h-bstatus="0OBSERVED">
         <path class="surah-path" d="m 201,999 c -7.817,3.16 -12.10816,11.74 -17.28516,18 -21.394,25.86 -33.24084,69.2 -15.71484,100 8.506,-3.98 12.92506,-13.9402 18.78906,-20.9102 5.562,-6.61 11.7921,-12.6098 17.4961,-19.0898 2.456,-2.79 5.94623,-5.48 7.36523,-9 2.439,-6.05 -2.03502,-15.05 -3.41601,-21 C 204.57137,1031.23 205.032,1014.59 201,999 Z" id="path181" data--h-bstatus="0OBSERVED"></path>
         <text class="surah-name" x="170.947533" y="1066" data--h-bstatus="0OBSERVED">الصف</text>
      </g>

      <g class="surah-group" data--h-bstatus="0OBSERVED">
         <path class="surah-path" d="m 700,967 c -7.869,2.272 -14.547,7.89058 -21,12.76758 -7.589,5.736 -15.4,11.18148 -23,16.89648 -3.016,2.268 -11.79297,7.16574 -11.79297,11.42574 0,5.27 10.33797,12.4502 13.79297,15.9102 11.25,11.25 22.075,20.2502 36,27.9902 4.625,2.57 10.543,6.97 16,7.25 4.316,0.23 7.923,-3.6401 11,-6.1601 8.015,-6.56 16.91892,-13.011 23.54492,-21.041 2.389,-2.9 7.97819,-7.6394 6.74219,-11.8594 -0.805,-2.74 -4.12506,-4.3704 -6.28906,-5.9004 -4.718,-3.33 -9.54105,-6.5292 -13.99805,-10.1992 C 718.498,993.77402 708.575,980.671 700,967 Z" id="path180" data--h-bstatus="0OBSERVED"></path>
         <text class="surah-name" x="678.835175" y="1018.125" data--h-bstatus="0OBSERVED">المطففين</text>
      </g>

      <g class="surah-group" data--h-bstatus="0OBSERVED">
         <path class="surah-path" d="m 808,959 c -3.261,14.086 -12.04063,26.774 -22.01562,37 -6.568,6.73 -15.97438,13.4 -19.98438,22 14.093,4.77 28.997,9.2293 44,7.2793 5.109,-0.66 11.68508,-0.7992 15.58008,-4.6992 C 829.81008,1016.3501 829,1009.45 829,1004 829,992.143 825.94967,981.409 820.13867,971 817.19467,965.726 814.047,960.698 808,959 Z" id="path179" data--h-bstatus="0OBSERVED"></path>
         <text class="surah-name" x="792.531067" y="1002.374207" data--h-bstatus="0OBSERVED">الحشر</text>
      </g>

      <g class="surah-group" data--h-bstatus="0OBSERVED">
         <path class="surah-path" d="m 299,937 c -1.091,25.032 -28.687,33.775 -49,25 -3.837,7.198 -6.107,13.79866 -14,17.59766 -8.863,4.266 -21.80166,2.76671 -27.97266,12.01172 -2.873,4.30199 -0.26018,12.58062 0.008,17.39062 1.002,17.96 6.07384,36.76 10.96484,54 7.27,-2.76 12.7,-8.5709 19,-12.9609 11.076,-7.71 22.998,-14.4789 35,-20.6289 4.873,-2.5 9.872,-4.9409 15,-6.8809 2.608,-0.98 6.27566,-1.5693 7.97266,-4.0293 1.858,-2.69 1.02734,-7.41 1.02734,-10.5 0,-7.36 0.71706,-14.65 1.03906,-22 0.736,-16.777 8.18294,-31.057 11.96094,-47 z" id="path178" data--h-bstatus="0OBSERVED"></path>
         <text class="surah-name" x="230.345581" y="1009" data--h-bstatus="0OBSERVED">الممتحنة</text>
      </g>

      <g class="surah-group" data--h-bstatus="0OBSERVED">
         <path class="surah-path" d="m 576,930 c 2.094,26.537 -1.71094,51.376 -12.33594,76 -3.495,8.1 -9.16206,14.99 -12.66406,23 15.555,8.2 36.131,6.1802 53,4.1602 3.898,-0.47 15.48948,-0.6005 17.39648,-4.4805 1.193,-2.43 0.60452,-6.0597 0.60352,-8.6797 -0.002,-7.42 -1.39216,-14.62 -1.91016,-22 -0.739,-10.548 -1.97699,-21.41 -0.91796,-32 1.00999,-10.109 3.82112,-19.753 3.82812,-30 -15.265,-0.042 -32.301,-1.868 -47,-6 z" id="path177" data--h-bstatus="0OBSERVED"></path>
         <text class="surah-name" x="580" y="982.4780883789062" data--h-bstatus="0OBSERVED">الطلاق</text>
      </g>

      <g class="surah-group" data--h-bstatus="0OBSERVED">
         <path class="surah-path" d="m 766.51367,920.01953 c -0.16876,-6e-4 -0.34004,0.009 -0.51367,0.0273 -5.219,0.56299 -10.906,7.25098 -15,10.20898 -10.669,7.708 -22.261,14.11909 -33,21.74609 -3.692,2.621 -11.47827,6.85405 -11.69727,11.99805 -0.19,4.489 5.43835,10.537 7.90235,14 8.296,11.659 18.80692,21.24832 30.79492,28.99015 3.324,2.14 8.814,6.5293 13,6.0293 5.219,-0.63 10.31616,-7.3604 13.91016,-10.7304 10.704,-10.03311 21.14956,-21.97505 27.60156,-35.28905 1.784,-3.683 5.39892,-9.67116 4.41992,-13.91016 -0.599,-2.596 -3.08926,-4.43462 -4.94726,-6.14062 -4.57903,-4.204 -9.28738,-8.30205 -13.98438,-12.37305 -4.111,-3.564 -8.06892,-7.30186 -12.16992,-10.88086 -1.78969,-1.56187 -3.78498,-3.66677 -6.31641,-3.67578 z" id="path176" data--h-bstatus="0OBSERVED"></path>
         <text class="surah-name" x="741.197479" y="970.539124" data--h-bstatus="0OBSERVED">المجادلة</text>
      </g>

      <g class="surah-group" data--h-bstatus="0OBSERVED">
         <path class="surah-path" d="m 390,918 c 0,19.275 -0.77391,38.669 -1.00391,58 -0.072,6.03 -3.3549,15.4577 0.7461,20.7207 2.441,3.132 6.63781,3.23039 10.25781,3.27539 8.331,0.10401 16.669,0.004 25,0.004 18.055,0 36.36,1.9509 54,5.8809 13.684,3.06 27.068,8.2391 41,10.1191 -1.626,-5.64 -4.75567,-10.65 -7.13867,-16 C 506.21833,985.094 500.1,970.54623 485,962.49023 c -16.285,-8.688 -35.716,-8.85873 -52,-17.80273 -9.699,-5.327 -13.54391,-14.77186 -22.00391,-21.13086 C 404.99609,919.04564 397.296,918.06 390,918 Z" id="path175" data--h-bstatus="0OBSERVED"></path>
         <text class="surah-name" x="417.842163" y="978.000061" data--h-bstatus="0OBSERVED">المنافقون</text>
      </g>

      <g class="surah-group" data--h-bstatus="0OBSERVED">
         <path class="surah-path" d="m 379.76172,917.90039 c -1.71063,-0.111 -3.51972,0.0852 -4.76172,0.13867 -9.105,0.395 -18.564,1.87178 -27,5.42578 -6.747,2.843 -12.469,7.63296 -19,10.87696 -3.99,1.982 -9.29256,2.44254 -12.35156,5.93554 -3.091,3.53 -4.2851,9.30066 -5.4961,13.72266 -2.778,10.149 -5.05664,20.557 -6.30664,31 -0.798,6.664 -5.11657,22.0507 0.85742,27.2207 4.18201,3.62 15.65488,-2.521 20.29688,-3.791 17.396,-4.78 36.942,-8.4297 55,-8.4297 0.865,-12.25 -0.28638,-24.686 0.0156,-37 0.188,-7.674 1.64944,-15.324 2.02344,-23 0.225,-4.637 0.71986,-9.371 1.13086,-14 0.174,-1.958 1.03767,-4.63348 -0.23633,-6.39648 -0.8485,-1.1735 -2.46125,-1.59213 -4.17187,-1.70313 z" id="path174" data--h-bstatus="0OBSERVED"></path>
         <text class="surah-name" x="328.603882" y="971.607727" data--h-bstatus="0OBSERVED">الجمعة</text>
      </g>

      <g class="surah-group" data--h-bstatus="0OBSERVED">
         <path class="surah-path" d="m 537.52344,916.70312 c -0.51088,0.0358 -1.01957,0.1144 -1.52344,0.24415 -4.261,1.096 -7.651,4.75357 -11,7.39257 -8.552,6.737 -17.72242,14.06316 -24.48242,22.66016 -2.351,2.99 -5.50763,7.01609 -5.64063,10.99609 -0.219,6.515 9.61749,11.73091 12.77149,17.00391 10.605,17.729 14.73156,44.47 37.35156,51 9.392,-14.24 15.64183,-28.667 20.42383,-45 1.452,-4.958 3.71053,-9.857 4.39453,-15 1.703,-12.787 0.18264,-25.179 0.18164,-38 -7.746,-1.62 -14.7,-5.44848 -22,-8.39648 -3.19813,-1.2915 -6.90041,-3.15106 -10.47656,-2.9004 z" id="path173" data--h-bstatus="0OBSERVED"></path>
         <text class="surah-name" x="520.749481" y="967.340088" data--h-bstatus="0OBSERVED">التغابن</text>
      </g>

      <g class="surah-group" data--h-bstatus="0OBSERVED">
         <path class="surah-path" d="m 679,912 c -8.85,2.8 -18.58708,4.34839 -27.83008,5.15039 -3.782,0.328 -10.60748,-0.17487 -13.52148,2.45313 -4.261,3.844 -6.15549,13.02848 -7.52149,18.39648 -2.77,10.888 -4.31389,21.818 -5.21289,33 -0.435,5.41 -1.15112,9.736 0.79688,15 1.776,4.799 6.3689,12.84496 11.3789,14.8398 3.204,1.27 6.46316,-1.55158 8.91016,-3.26558 5.992,-4.198 11.967,-8.40983 18,-12.54883 l 22,-15.05078 c 2.773,-1.911 7.32791,-4.16983 8.87891,-7.29883 1.715,-3.459 -1.75085,-9.37178 -2.96485,-12.67578 -2.452,-6.675 -5.38951,-13.188 -7.47851,-20 -1.775,-5.79 -2.60855,-12.693 -5.43555,-18 z" id="path172" data--h-bstatus="0OBSERVED"></path>
         <text class="surah-name" x="643.882507" y="956.5792541503906" data--h-bstatus="0OBSERVED">الحديد</text>
      </g>

      <g class="surah-group" data--h-bstatus="0OBSERVED">
         <path class="surah-path" d="m 186,911 c -6.368,1.232 -11.083,5.80569 -16,9.80469 -4.448,3.617 -8.01284,7.75547 -11.71484,12.10547 -9.036,10.617 -20.75449,24.27284 -21.02149,39.08984 -0.083,4.601 2.47674,8.809 4.05274,13 2.315,6.16 4.13975,12.394 4.59375,19 1.099,15.95 -7.76716,40.88 15.08984,45 2.768,-18.75 18.467,-36.5391 31,-49.66406 6.409,-6.713 12.486,-13.30794 21,-17.33594 -2.948,-9.316 -9.61241,-17.16 -13.69141,-26 C 192.82559,941.948 189.118,926.106 186,911 Z" id="path171" data--h-bstatus="0OBSERVED"></path>
         <text class="surah-name" x="159.130852" y="980" data--h-bstatus="0OBSERVED">الطور</text>
      </g>

      <g class="surah-group" data--h-bstatus="0OBSERVED">
         <path class="surah-path" d="m 744.66602,879.77344 c -0.21772,0.0107 -0.4411,0.0354 -0.66797,0.0742 -4.891,0.838 -9.90105,5.50061 -13.99805,8.09961 -9.447,5.992 -18.769,12.13123 -29,16.74023 -3.774,1.7 -12.47958,2.69442 -14.39258,6.73242 -1.485,3.136 0.37596,7.51808 1.25196,10.58008 2.38999,8.344 4.82821,17.102 8.44921,25 1.233,2.69 3.05588,8.37909 6.79688,8.12109 4.789,-0.331 10.12953,-6.16134 13.89453,-8.77734 10.963,-7.615 22.176,-14.79161 33,-22.59961 3.552,-2.561 11.75473,-5.81505 13.30273,-10.12305 0.956,-2.658 -0.81356,-6.16909 -1.72656,-8.62109 -2.602,-6.988 -5.44969,-13.79614 -9.67969,-19.99414 -1.71281,-2.50969 -3.96468,-5.39351 -7.23046,-5.23242 z" id="path170" data--h-bstatus="0OBSERVED"></path>
         <text class="surah-name" x="719.814514" y="917.4482727050781" data--h-bstatus="0OBSERVED">ق</text>
      </g>

      <g class="surah-group" data--h-bstatus="0OBSERVED">
         <path class="surah-path" d="m 755,877 c 4.618,12.689 10.90275,27.459 19.46875,38 7.696,9.471 17.80216,16.60206 26.53516,25.03906 4.361,4.214 8.64217,8.53288 12.82617,12.92188 1.941,2.035 4.10858,4.94347 7.18554,5.10547 4.909,0.258 8.80015,-5.51336 11.11915,-9.06836 C 839.10477,938.31505 841.999,925.622 842,913 c 0,-3.694 1.27148,-10.52048 -1.60352,-13.39648 -2.474,-2.473 -7.25048,-1.50458 -10.39648,-1.64258 -7.984,-0.351 -16.036,-1.31578 -24,-2.05078 -11.924,-1.101 -26.24,-6.55732 -37,-11.69532 -4.775,-2.28 -9.022,-5.36784 -14,-7.21484 z" id="path169" data--h-bstatus="0OBSERVED"></path>
         <text class="surah-name" x="790.640045" y="920.537384" data--h-bstatus="0OBSERVED">الذاريات</text>
      </g>

      <g class="surah-group" data--h-bstatus="0OBSERVED">
         <path class="surah-path" d="m 258.8457,866.67773 c -2.62921,-0.0936 -5.7657,1.99413 -7.8457,2.89844 -7.886,3.427 -15.494,7.37746 -23,11.56445 -8.114,4.52603 -16.103,9.15379 -24,14.05079 -3.753,2.328 -8.74164,4.71565 -10.80664,8.84765 -2.121,4.242 0.13386,10.58094 1.00586,14.96094 2.652,13.319 7.69653,26.854 13.76953,39 2.938,5.875 6.98331,14.66331 13.07031,17.82031 C 233.48406,982.27531 243.678,964.77 245,955 c 13.973,1.219 24.77894,9.2713 37.96094,-0.2207 2.263,-1.63 4.20119,-3.58436 5.86718,-5.81836 2.864,-3.841 5.69269,-9.8675 3.42969,-14.6875 -1.7,-3.62 -7.36675,-5.61619 -10.21875,-8.36719 -5.129,-4.948 -8.73815,-11.40525 -11.53515,-17.90625 -4.246,-9.871 -5.52674,-19.487 -6.92774,-30 -0.407,-3.047 0.14124,-9.12519 -3.00976,-10.86719 -0.53344,-0.29512 -1.11397,-0.43349 -1.72071,-0.45508 z" id="path168" data--h-bstatus="0OBSERVED"></path>
         <text class="surah-name" x="227.695" y="921.9447021484375" data--h-bstatus="0OBSERVED">النجم</text>
      </g>

      <g class="surah-group" data--h-bstatus="0OBSERVED">
         <path class="surah-path" d="m 582,862 c -4.385,8.234 -6.66552,16.886 -13.10352,24 -4.485,4.955 -9.00811,10.29716 -13.9121,14.82812 C 551.09838,904.42013 547.037,906.968 545,912 c 18.857,7.841 36.596,14.36248 57,17.27148 6.163,0.878 17.90727,2.866 23.69727,0.125 3.523,-1.669 4.4119,-8.10848 5.7539,-11.39648 3.915,-9.588 9.22797,-18.707 13.79297,-28 1.529,-3.114 5.26467,-9.06481 2.13867,-12.25781 C 643.88181,874.16719 631.906,875.33717 627,874.57617 611.684,872.19917 596.702,866.782 582,862 Z" id="path167" data--h-bstatus="0OBSERVED"></path>
         <text class="surah-name" x="577.796936" y="902.396515" data--h-bstatus="0OBSERVED">الحجرات</text>
      </g>

      <g class="surah-group" data--h-bstatus="0OBSERVED">
         <path class="surah-path" d="m 480,862 c -10.648,3.81 -19.872,10.16594 -29,16.71094 -9.631,6.906 -18.58772,14.80206 -25.76172,24.28906 -3.346,4.426 -7.11701,10.218 -7.04101,16 0.084,6.509 5.03679,11.95972 9.84179,15.76172 11.349,8.979 27.17094,13.27033 40.96094,16.86133 4.783,1.245 11.99516,4.568 16.91016,3.875 5.214,-0.735 8.38801,-8.86505 11.41601,-12.49805 5.779,-6.935 12.73583,-13.017 19.67383,-18.75 4.849,-4.007 10.279,-7.432 13,-13.25 -13.911,-7.926 -26.48078,-19.093 -37.05078,-31 C 488.06622,874.5 482.639,868.962 480,862 Z" id="path166" data--h-bstatus="0OBSERVED"></path>
         <text class="surah-name" x="458.098068" y="917.796051" data--h-bstatus="0OBSERVED">الواقعة</text>
      </g>

      <g class="surah-group" data--h-bstatus="0OBSERVED">
         <path class="surah-path" d="m 307.75391,855.21094 c -7.73276,0.0201 -15.33166,0.92119 -21.75391,2.03906 -4.646,0.809 -15.09275,2.10967 -17.96875,6.26367 -2.078,3.002 -0.192,9.12633 0.25,12.48633 1.507,11.461 3.78688,23.871 9.67187,34 10.219,17.586 46.36246,36.426 57.56446,9 3.821,-9.354 -3.14158,-16.176 -4.51758,-25 4.839,0.211 10.34403,2.62611 14.95703,0.41211 11.772,-5.651 3.56419,-22.72781 -3.25781,-28.88281 -8.79813,-7.9375 -22.05739,-10.35181 -34.94531,-10.31836 z" id="path165" data--h-bstatus="0OBSERVED"></path>
         <text class="surah-name" x="291.487396" y="894.0307312011719" data--h-bstatus="0OBSERVED">القمر</text>
      </g>

      <g class="surah-group" data--h-bstatus="0OBSERVED">
         <path class="surah-path" d="m 199,834 c -10.794,0.23 -21.619,5.79825 -31,10.78125 -4.502,2.391 -9.26741,5.17381 -12.44141,9.25781 -4.671,6.011 -6.86381,14.89294 -9.50781,21.96094 -4.995,13.355 -10.23678,25.931 -13.05078,40 -2.716,13.579 -6.79,30.047 0,43 4.551,-4.542 6.88453,-11.607 10.51953,-17 5.609,-8.322 12.68063,-15.64384 19.76563,-22.71484 5.037,-5.028 10.92867,-9.07707 16.13867,-13.91407 2.144,-1.991 4.86565,-3.56706 5.97265,-6.41406 1.363,-3.507 0.60252,-8.26003 0.60352,-11.95703 0.002,-5.984 0.50706,-12.067 1.28906,-18 1.613,-12.231 7.79794,-23.433 11.71094,-35 z" id="path164" data--h-bstatus="0OBSERVED"></path>
         <text class="surah-name" x="148.142067" y="896.5" data--h-bstatus="0OBSERVED">الدخان</text>
      </g>

      <g class="surah-group" data--h-bstatus="0OBSERVED">
         <path class="surah-path" d="m 390,828 c -6.685,0.139 -11.94805,2.363 -17.99805,5 -2.71,1.182 -5.95276,2.31389 -7.25976,5.21289 -2.197,4.872 -0.62034,10.65616 -3.07031,15.78516 -2.04702,4.287 -7.90071,7.51158 -8.84571,12.01757 -0.862,4.111 3.11944,9.84138 3.89844,13.98438 2.463,13.091 -6.49661,17.444 -16.72461,22 1.631,6.163 2,11.632 2,18 10.509,-1.552 20.281,-6.67917 31,-7.82617 12.412,-1.329 25.826,1.56517 38,3.82617 2.094,-3.679 6.79542,-10.659 5.98242,-15 -0.761,-4.06 -5.43456,-7.807 -7.85156,-11 -4.898,-6.47 -9.33055,-13.658 -12.81055,-21 -3.549,-7.487 -6.71456,-16.672 -7.22656,-25 -0.325,-5.29 0.90225,-10.669 0.90625,-16 z" id="path163" data--h-bstatus="0OBSERVED"></path>
         <text class="surah-name" x="361.537933" y="885" data--h-bstatus="0OBSERVED">الرحمن</text>
      </g>

      <g class="surah-group" data--h-bstatus="0OBSERVED">
         <path class="surah-path" d="m 786.01172,824.13477 c -0.34037,0.0172 -0.67778,0.074 -1.01172,0.17187 -3.432,1.006 -6.47322,5.09436 -8.69922,7.69336 -6.252,7.302 -11.15895,15.668 -15.87695,24 -1.667,2.945 -6.3388,8.89262 -4.3418,12.39062 2.821,4.94401 12.90997,9.1928 17.91797,11.4668 14.281,6.483 28.514,9.41183 44,11.42383 5.94,0.771 14.05281,2.05731 19.75781,-0.42969 5.571,-2.43 -0.47865,-16.14361 -0.72265,-20.84961 -0.175,-3.384 0.36603,-7.79304 -1.91797,-10.62304 -2.923,-3.623 -9.17119,-5.13385 -13.11719,-7.46485 -8.162,-4.822 -15.05836,-10.32314 -21.98438,-16.74414 -3.17343,-2.94187 -8.8983,-11.29316 -14.0039,-11.03515 z" id="path162" data--h-bstatus="0OBSERVED"></path>
         <text class="surah-name" x="782.851074" y="867.218536" data--h-bstatus="0OBSERVED">الزخرف</text>
      </g>

      <g class="surah-group" data--h-bstatus="0OBSERVED">
         <path class="surah-path" d="m 518,820 c -7.065,15.84 -19.51,28.415 -34,38 1.454,4.286 4.30009,7.40505 6.99609,10.99805 8.039,10.717 17.52091,18.99289 28.00391,27.21289 4.591,3.599 10.824,9.83995 17,10.25195 4.65,0.311 8.791,-4.57203 12,-7.33203 9.141,-7.863 17.19467,-15.47586 23.13867,-26.13086 1.748,-3.132 5.09527,-8.11353 4.07227,-11.89453 -1.319,-4.879 -11.21094,-8.2528 -15.21094,-10.7168 -7.052,-4.343 -14.42508,-8.75453 -20.83008,-14.01953 C 532.33392,830.75114 525.98,823.975 518,820 Z" id="path161" data--h-bstatus="0OBSERVED"></path>
         <text class="surah-name" x="520.700745" y="869.238525" data--h-bstatus="0OBSERVED">الفتح</text>
      </g>

      <g class="surah-group" data--h-bstatus="0OBSERVED">
         <path class="surah-path" d="m 448,818 c -12.318,-0.005 -23.887,0.53391 -36,3.00391 -3.799,0.775 -12.49566,1.33393 -14.97266,4.58593 -2.186,2.869 -1.32418,9.87116 -1.74218,13.41016 -1.715,14.547 5.05229,28.035 12.52929,40 3.982,6.372 9.62655,13.203 17.18555,15 3.583,-6.888 10.74806,-12.11866 17.03906,-16.51562 C 455.12506,868.33838 470.222,861.816 482,851 c -3.981,-6.921 -9.35465,-12.689 -12.76562,-20 -1.51302,-3.241 -2.41811,-8.91756 -5.53711,-10.97656 C 459.71727,817.39544 452.554,818.002 448,818 Z" id="path160" data--h-bstatus="0OBSERVED"></path>
         <text class="surah-name" x="423.508224" y="854.970428" data--h-bstatus="0OBSERVED">محمد</text>
      </g>

      <g class="surah-group" data--h-bstatus="0OBSERVED">
         <path class="surah-path" d="m 705,802 c -8.534,6.795 -14.22522,16.86 -19.94922,26 -10.881,17.376 -21.08125,35.619 -30.15625,54 -4.736,9.594 -11.94253,20.168 -12.89453,31 20.699,-0.057 41.534,-5.73575 60,-14.96875 15.281,-7.641 28.438,-18.13325 44,-25.03125 -2.855,-6.122 -8.62331,-10.53283 -13.19531,-15.42383 C 727.56469,851.96917 723.02584,845.583 719.08984,839 712.13884,827.371 711.281,813.555 705,802 Z" id="path159" data--h-bstatus="0OBSERVED"></path>
         <text class="surah-name" x="681" y="872.5" data--h-bstatus="0OBSERVED">فصلت</text>
      </g>

      <g class="surah-group" data--h-bstatus="0OBSERVED">
         <path class="surah-path" d="M 594.23047,794.9043 C 591.07497,794.72217 587.8115,794.999 585,795 c -15.757,0.006 -31.421,2.38017 -47,4.57617 -6.47,0.911 -18.53067,1.63583 -16.63867,11.42383 0.631,3.262 3.37053,5.74494 5.64453,7.96094 5.567,5.425 11.86614,10.25339 17.99414,15.02539 23.04,17.942 49.811,27.66183 78,33.67383 7.039,1.502 13.843,2.79776 21,3.50976 2.545,0.253 5.39553,1.16689 7.89453,0.21289 3.103,-1.184 4.47441,-4.67381 5.94141,-7.38281 3.064,-5.661 6.16706,-11.304 9.16406,-17 -19.914,-7.726 -35.63739,-18.41983 -51.02539,-33.17383 -4.951,-4.747 -7.83416,-12.15472 -13.16016,-16.26172 -2.3815,-1.8365 -5.42848,-2.47803 -8.58398,-2.66015 z" id="path158" data--h-bstatus="0OBSERVED"></path>
         <text class="surah-name" x="582.081177" y="835.325104" data--h-bstatus="0OBSERVED">غافر</text>
      </g>

      <g class="surah-group" data--h-bstatus="0OBSERVED">
         <path class="surah-path" d="m 273,791 c -11.387,3.87 -20.955,15.97653 -31,22.64453 -6.148,4.081 -13.217,8.35995 -20,11.25195 -4.657,1.985 -10.7785,2.50202 -14.8125,5.66602 -4.365,3.425 -6.5282,10.3335 -8.1582,15.4375 -3.043,9.527 -4.6753,19.117 -6.0293,29 -0.864,6.309 -1.832,12.801 0,19 6.771,-1.992 12.082,-6.7808 18,-10.4668 9.479,-5.904 19.852,-11.56261 30,-16.22461 4.902,-2.252 15.94766,-4.17551 18.97266,-8.72851 1.712,-2.577 0.99625,-6.65508 1.03125,-9.58008 0.067,-5.578 0.61195,-11.445 1.16797,-17 1.388,-13.874 6.53912,-27.815 10.82812,-41 z" id="path157" data--h-bstatus="0OBSERVED"></path>
         <text class="surah-name" x="214.479134" y="852.5" data--h-bstatus="0OBSERVED">الجاثية</text>
      </g>

      <g class="surah-group" data--h-bstatus="0OBSERVED">
         <path class="surah-path" d="m 843,783 c -14.538,1.569 -26.49195,14.39662 -38.00195,22.26562 -3.952,2.703 -11.32957,6.34038 -11.97657,11.73438 -0.507,4.226 4.67758,8.37222 7.26758,11.07422 8.772,9.147 21.79894,19.98278 34.71094,21.92578 0.254,-12.219 5.905,-19.611 16,-26 -3.46,-13.367 -6.159,-27.329 -8,-41 z" id="path156" data--h-bstatus="0OBSERVED"></path>
         <text class="surah-name" x="811.993408" y="820.5" data--h-bstatus="0OBSERVED">فاطر</text>
      </g>

      <g class="surah-group" data--h-bstatus="0OBSERVED">
         <path class="surah-path" d="m 326.05078,767.42969 c -9.763,-0.38075 -20.53078,2.92926 -29.05078,6.57226 -5.726,2.448 -12.53408,5.1488 -16.58008,10.0918 -3.219,3.933 -3.67844,9.15825 -4.89844,13.90625 -2.144,8.335 -4.9445,16.496 -6.4375,25 -1.402,7.986 -2.10098,15.901 -2.08398,24 0.005,2.574 -0.65064,7.35253 2.31836,8.64453 2.606,1.133 6.23664,-1.11544 8.68164,-1.89844 5.583,-1.787 11.219,-2.55326 17,-3.32226 17.735,-2.357 36.236,0.0632 51,10.57617 10.574,-6.113 17.31939,-19.38725 7.77539,-29.90625 -3.232,-3.562 -11.74606,-5.43122 -13.03906,-10.19922 -1.059,-3.906 3.05992,-9.50953 4.66992,-12.89453 3.669,-7.717 7.04511,-16.638 3.66211,-25 -4.497,-11.119 -13.25458,-15.18956 -23.01758,-15.57031 z" id="path155" data--h-bstatus="0OBSERVED"></path>
         <text class="surah-name" x="291.646606" y="820.19989" data--h-bstatus="0OBSERVED">الأحقاف</text>
      </g>

      <g class="surah-group" data--h-bstatus="0OBSERVED">
         <path class="surah-path" d="m 767,764 c -14.945,0.685 -31.07,12.61977 -43,20.88477 -4.458,3.089 -10.9077,6.51014 -12.4707,12.11914 -1.516,5.437 1.77965,12.87109 3.47265,17.99609 5.619,17.01 17.83905,40.453 34.99805,48 9.205,-15.609 18.359,-33.752 33,-45 -6.209,-18.234 -17.398,-33.685 -16,-54 z" id="path154" data--h-bstatus="0OBSERVED"></path>
         <text class="surah-name" x="731.070465" y="813.5" data--h-bstatus="0OBSERVED">الشوري</text>
      </g>

      <g class="surah-group" data--h-bstatus="0OBSERVED">
         <path class="surah-path" d="m 662,756 c -14.435,5.922 -27.214,15.14856 -40,23.97656 -3.69,2.548 -11.17587,6.2645 -12.17188,11.0625 -1.07798,5.194 6.38041,12.03021 9.44141,15.53321 9.762,11.171 22.52147,20.05282 35.73047,26.67382 4.174,2.092 9.97348,6.03568 14.89648,5.26368 4.065,-0.638 6.2478,-6.37677 8.0918,-9.50977 3.49,-5.928 7.35733,-11.495 11.48633,-17 3.36,-4.48 7.20939,-8.45 8.52539,-14 -16.47,-9.384 -27.98,-25.154 -36,-42 z" id="path153" data--h-bstatus="0OBSERVED"></path>
         <text class="surah-name" x="638.861267" y="803.30426" data--h-bstatus="0OBSERVED">الأحزاب</text>
      </g>

      <g class="surah-group" data--h-bstatus="0OBSERVED">
         <path class="surah-path" d="m 408,752 c -8.817,20.488 -12,43.901 -12,66 10.047,-0.821 19.918,-3.86708 30,-4.83008 11.812,-1.129 24.135,-0.16992 36,-0.16992 -0.063,-7.627 -2.45917,-15.408 -1.82617,-23 0.403,-4.842 3.28075,-13.06036 1.21875,-17.60938 C 459.71158,768.68264 453.378,766.75091 450,765.00391 436.834,758.19491 422.314,755.272 408,752 Z" id="path152" data--h-bstatus="0OBSERVED"></path>
         <text class="surah-name" x="412.064743" y="790" data--h-bstatus="0OBSERVED">الصافات</text>
      </g>

      <g class="surah-group" data--h-bstatus="0OBSERVED">
         <path class="surah-path" d="m 473,751 c -0.69,7.9 -4.56322,15.137 -5.69922,23 -2.447,16.937 -0.68523,35.01 5.50977,51 2.291,5.914 8.31345,20.4352 16.18945,20.0332 8.976,-0.457 16.95733,-14.1392 20.61133,-21.0332 6.78,-12.793 7.48015,-28.357 -0.0899,-41 C 505.44748,776.197 499.731,771.22116 494,765.91016 487.442,759.83216 481.337,754.472 473,751 Z" id="path151" data--h-bstatus="0OBSERVED"></path>
         <text class="surah-name" x="475.594635" y="802.020691" data--h-bstatus="0OBSERVED">الزمر</text>
      </g>

      <g class="surah-group" data--h-bstatus="0OBSERVED">
         <path class="surah-path" d="m 393.97852,750.69727 c -2.98438,-0.0354 -6.14852,0.48656 -7.97852,0.72656 -10.733,1.409 -21.27,1.71544 -32,3.77344 -3.273,0.627 -8.77548,0.54503 -10.39648,4.08203 -4.081,8.906 9.32933,14.1497 11.06836,21.7207 1.728,7.529 1.01396,15.891 -1.95704,23 -1.495,3.578 -6.41081,10.64903 -5.00781,14.58203 0.925,2.591 5.28097,3.97958 7.29297,5.64258 2.961,2.447 5.707,6.44958 10,6.01758 6.159,-0.619 13.35405,-5.27972 18.99805,-7.76172 2.099,-0.923 4.67861,-1.7413 5.97461,-3.7793 2.142,-3.368 0.83426,-8.89417 1.19726,-12.70117 0.891,-9.366 1.63514,-18.803 3.61914,-28 1.261,-5.843 2.65174,-11.463 4.92774,-17 0.92,-2.239 2.49511,-5.29064 1.16211,-7.68164 -1.1115,-1.9925 -3.91602,-2.58572 -6.90039,-2.62109 z" id="path150" data--h-bstatus="0OBSERVED"></path>
         <text class="surah-name" x="365.1138" y="790.4850158691406" data--h-bstatus="0OBSERVED">ص</text>
      </g>

      <g class="surah-group" data--h-bstatus="0OBSERVED">
         <path class="surah-path" d="m 847,745 c -18.519,0.012 -37.001,5.29794 -55,9.21094 -5.479,1.191 -15.86066,2.7499 -18.97266,8.0039 -2.274,3.839 -0.63526,9.70416 0.0527,13.78516 2.172,12.887 7.70492,23.68 13.91992,35 14.101,-5.17 26.211,-17.54867 39,-25.38867 4.682,-2.87 13.67897,-6.07194 16.54297,-10.83594 2.375,-3.949 1.30309,-9.39439 1.49609,-13.77539 0.238,-5.371 1.61794,-10.811 2.96094,-16 z" id="path149" data--h-bstatus="0OBSERVED"></path>
         <text class="surah-name" x="800.431549" y="778" data--h-bstatus="0OBSERVED">سبأ</text>
      </g>

      <g class="surah-group" data--h-bstatus="0OBSERVED">
         <path class="surah-path" d="m 224,732 c -39.672,21.753 -55.826,68.849 -64,111 4.84,-1.762 8.65316,-5.11916 13.28516,-7.16016 10.502,-4.627 22.77484,-7.10493 33.71484,-10.83593 3.768,-1.285 14.09303,-3.09225 15.58203,-7.28125 1.657,-4.662 -5.81639,-13.43966 -7.56641,-17.72266 -4.14199,-10.132 -5.06146,-22.169 -3.73046,-33 0.959,-7.806 3.31706,-16.047 7.03906,-23 2.018,-3.769 6.27978,-7.593 5.67578,-12 z" id="path148" data--h-bstatus="0OBSERVED"></path>
         <text class="surah-name" x="183.029037" y="802.5" data--h-bstatus="0OBSERVED">النمل</text>
      </g>

      <g class="surah-group" data--h-bstatus="0OBSERVED">
         <path class="surah-path" d="m 725,726 c -13.72,4.472 -26.87,10.49455 -40,16.43555 -4.275,1.934 -13.24703,5.37972 -15.95703,9.26172 -2.514,3.603 1.49992,10.15373 3.29492,13.30273 5.096,8.938 13.46111,15.72494 21.66211,21.71094 2.885,2.105 7.15994,5.63876 10.96094,5.38476 4.926,-0.328 10.37506,-7.08456 14.03906,-9.97656 7.601,-6 16.827,-11.93914 26,-15.11914 -1.523,-6.422 -6.54047,-11.386 -9.85547,-17 C 730.70353,742.479 727.79,734.248 725,726 Z" id="path147" data--h-bstatus="0OBSERVED"></path>
         <text class="surah-name" x="685.618896" y="763.054352" data--h-bstatus="0OBSERVED">المؤمنون</text>
      </g>

      <g class="surah-group" data--h-bstatus="0OBSERVED">
         <path class="surah-path" d="m 909.88477,717.63672 c -0.25169,-0.014 -0.50221,-0.0119 -0.75196,0.01 -2.842,0.244 -3.91109,3.27438 -5.24609,5.35938 -2.474,3.865 -5.33355,7.56583 -9.06055,10.29883 -6.283,4.608 -14.05817,7.21515 -21.82617,7.66015 -5.494,0.315 -15.09647,-0.41707 -19.60547,3.04493 C 847.70653,748.37677 849,757.752 849,764 c 0,13.084 0.34028,25.13 2.73828,38 0.991,5.316 1.28524,11.02738 3.61524,15.98438 3.184,6.77499 10.39957,6.75146 15.64257,11.23046 6.094,5.205 7.38135,13.15674 12.65235,18.42774 4.305,4.305 15.08133,-1.9572 14.48633,-7.6582 -1.093,-10.482 -13.219,-21.11154 -19.375,-28.89454 -1.052,-1.329 -6.91771,-8.89381 -1.59571,-8.88281 4.162,0.008 9.08988,6.96497 11.54688,9.79297 6.957,8.011 12.89884,17.15 16.83984,27 1.91,4.774 3.23039,13.91242 7.15039,17.35742 2.281,2.005 5.76783,0.67588 8.29883,-0.0781 6.738,-2.009 14.63837,-5.8463 12.35938,-14.2793 C 928.26535,823.153 908.159,813.683 900,797 c 9.521,-2.267 20.251,-1 30,-1 4.193,0 10.1797,1.01681 13.7207,-1.74219 5.369,-4.184 3.03122,-13.56281 2.44922,-19.25781 -0.389,-3.811 -0.18751,-7.11856 -4.22851,-8.85156 C 937.72441,764.33944 932.475,764.993 928,765 c -11.84,0.019 -25.479,1.256 -37,4 -0.447,-5.207 3.11,-6.80564 7,-9.64062 7.936,-5.78202 16.023,-11.34432 24,-17.07032 3.297,-2.367 10.33605,-6.31444 9.24805,-11.27344 -1.325,-6.04597 -11.24405,-9.64246 -16.24805,-11.73046 -1.56187,-0.65275 -3.35344,-1.55029 -5.11523,-1.64844 z" id="path146" data--h-bstatus="0OBSERVED"></path>
         <text class="surah-name" x="870.02536" y="787.5208435058594" data--h-bstatus="0OBSERVED">يس</text>
      </g>

      <g class="surah-group" data--h-bstatus="0OBSERVED">
         <path class="surah-path" d="m 581.5,717.59766 c -21.64271,-0.78406 -39.62223,15.06592 -53.83398,31.23242 -5.581,6.349 -13.11336,14.41592 -14.31836,23.16992 -0.62,4.505 2.02318,8.121 3.86718,12 1.985,4.175 3.35716,8.612 4.78516,13 17.704,-2.286 35.089,-6.76916 53,-7.91016 7.525,-0.479 15.394,0.91016 23,0.91016 -1.615,-6.816 -4.64627,-13.252 -6.57227,-20 -4.948,-17.342 -5.92673,-33.688 -0.42773,-51 -3.241,-0.8385 -6.40818,-1.29034 -9.5,-1.40234 z" id="path145" data--h-bstatus="0OBSERVED"></path>
         <text class="surah-name" x="540.627747" y="762.284851" data--h-bstatus="0OBSERVED">السجدة</text>
      </g>

      <g class="surah-group" data--h-bstatus="0OBSERVED">
         <path class="surah-path" d="m 663,706 c -8.607,0.756 -17.553,4.45339 -26,6.52539 -13.556,3.324 -28.069,5.18761 -42,5.47461 -0.37,17.948 -3.76422,34.703 3.42578,52 1.289,3.102 3.62875,14.33405 7.71875,14.24805 4.796,-0.101 11.09452,-6.97093 14.85352,-9.66993 C 632.40905,766.38315 645.382,755.006 659,751 c 0,-8.781 -1.71217,-18.367 -0.82617,-27 0.627,-6.109 3.15617,-12.115 4.82617,-18 z" id="path144" data--h-bstatus="0OBSERVED"></path>
         <text class="surah-name" x="611.438934" y="747.124268" data--h-bstatus="0OBSERVED">الأنبياء</text>
      </g>

      <g class="surah-group" data--h-bstatus="0OBSERVED">
         <path class="surah-path" d="m 805,705 c -10.179,0.438 -21.116,3.42453 -31,5.89453 -8.027,2.006 -16.047,4.10849 -24,6.39649 -4.539,1.306 -14.35259,2.72151 -16.93359,7.10351 -1.747,2.967 0.27243,7.72547 1.39843,10.60547 3.203,8.194 8.63307,19.56395 16.53907,24.12695 4.452,2.57 9.54809,0.3391 13.99609,-1.1289 10.956,-3.616 21.991,-6.61466 33,-9.97266 3.609,-1.101 11.61281,-1.56331 13.38281,-5.44531 1.741,-3.818 -1.53433,-8.98808 -2.61133,-12.58008 -2.391,-7.97 -3.70248,-16.689 -3.77148,-25 z" id="path143" data--h-bstatus="0OBSERVED"></path>
         <text class="surah-name" x="757.132904" y="737.651367" data--h-bstatus="0OBSERVED">الفرقان</text>
      </g>

      <g class="surah-group" data--h-bstatus="0OBSERVED">
         <path class="surah-path" d="m 285,704 c -10.598,1.428 -20.804,6.74895 -30,12.00195 -8.145,4.652 -17.29845,9.18889 -23.81445,16.08789 -7.699,8.152 -12.75771,21.99616 -14.72071,32.91016 -2.357,13.097 1.05802,26.139 6.45704,38 1.417,3.115 3.18993,9.99783 7.21093,10.54883 4.858,0.665 10.38419,-5.50822 13.86719,-8.19922 11.48,-8.868 22.902,-18.35461 35,-26.34961 -3.451,-10.589 -8.50294,-21.711 -8.96094,-33 -0.646,-15.929 7.89794,-28.594 14.96094,-42 z" id="path142" data--h-bstatus="0OBSERVED"></path>
         <text class="surah-name" x="227.353493" y="768.799286" data--h-bstatus="0OBSERVED">القصص</text>
      </g>

      <g class="surah-group" data--h-bstatus="0OBSERVED">
         <path class="surah-path" d="m 523,696.62109 c -4.443,0.195 -9.507,4.35936 -13,6.81836 -10.33,7.272 -19.71067,16.63455 -26.13867,27.56055 -1.871,3.18 -5.05736,7.209 -5.31836,11 -0.225,3.252 2.20456,5.69483 4.47656,7.67383 5.234,4.559 11.64072,7.53186 16.88672,12.13086 2.031,1.78 4.97603,6.72543 8.08203,6.27343 2.42,-0.35298 3.72444,-3.21298 4.77344,-5.08398 2.911,-5.187 5.52203,-10.36152 9.33203,-14.97852 C 532.87975,734.94565 547.708,721.557 564,716 c -8.456,-5.614 -19.31,-6.67541 -28,-12.06641 -3.76,-2.332 -8.285,-7.5195 -13,-7.3125 z" id="path141" data--h-bstatus="0OBSERVED"></path>
         <text class="surah-name" x="506.264221" y="732.3611145019531" data--h-bstatus="0OBSERVED">طه</text>
      </g>

      <g class="surah-group" data--h-bstatus="0OBSERVED">
         <path class="surah-path" d="m 448,688 c -9.885,12.974 -19.69561,24.708 -27.84961,39 -3.814,6.686 -8.00839,13.275 -9.15039,21 10.097,0.825 20.654,4.02233 30,7.86133 7.303,3 15.095,7.34667 23,8.13867 2.402,-8.802 5.53494,-17.942 9.83594,-26 2.337,-4.378 7.3889,-9.979 7.7539,-15 0.321,-4.426 -3.76999,-8.666 -6.16796,-12 C 468.55388,701.453 459.921,690.858 448,688 Z" id="path140" data--h-bstatus="0OBSERVED"></path>
         <text class="surah-name" x="436.303833" y="732" data--h-bstatus="0OBSERVED">لقمان</text>
      </g>

      <g class="surah-group" data--h-bstatus="0OBSERVED">
         <path class="surah-path" d="m 372,685 c -17.304,0 -34.133,2.85017 -51,6.57617 -7.625,1.684 -16.136,3.03308 -23,6.95508 -24.555,14.032 -28.128,53.08275 -14,75.46875 10.451,-2.482 19.132,-9.26094 30,-10.71094 5.913,-0.79 16.55808,2.0256 21.58008,-1.3164 2.525,-1.68 3.05175,-5.28366 3.84375,-7.97266 1.571,-5.33 3.13072,-10.773 5.01172,-16 4.483,-12.451 10.34928,-23.566 16.98828,-35 3.472,-5.979 7.92617,-11.616 10.57617,-18 z" id="path139" data--h-bstatus="0OBSERVED"></path>
         <text class="surah-name" x="293.8703" y="735.5" data--h-bstatus="0OBSERVED">العنكبوت</text>
      </g>

      <g class="surah-group" data--h-bstatus="0OBSERVED">
         <path class="surah-path" d="m 568.39453,684.75586 c -3.84481,-0.0969 -7.66428,0.0713 -11.39453,0.5293 -9.424,1.158 -17.936,4.24084 -27,6.71484 19.725,20.053 54.789,21.74616 81,19.91016 4.722,-0.331 9.254,-1.70616 14,-1.91016 -4.197,-8.999 -14.246,-14.09161 -23,-17.84961 -10.30425,-4.42275 -22.07103,-7.10376 -33.60547,-7.39453 z" id="path138" data--h-bstatus="0OBSERVED"></path>
         <text class="surah-name" x="568.5" y="703.601196" data--h-bstatus="0OBSERVED">مريم</text>
      </g>

      <g class="surah-group" data--h-bstatus="0OBSERVED">
         <path class="surah-path" d="m 733,681 c -14.777,3.089 -28.721,9.72438 -43,14.48438 -6.113,2.037 -15.66956,3.48206 -20.35156,8.16406 -2.599,2.599 -3.58919,6.90756 -4.49219,10.35156 -2.711,10.337 -3.43425,22.056 0.84375,32 13.678,-4.588 26.885,-11.68641 40,-17.69141 5.175,-2.37 13.65248,-4.23556 17.39648,-8.72656 3.485,-4.182 1.94174,-14.28003 2.92774,-19.58203 1.242,-6.68 5.48878,-12.339 6.67578,-19 z" id="path137" data--h-bstatus="0OBSERVED"></path>
         <text class="surah-name" x="686.978516" y="716.5" data--h-bstatus="0OBSERVED">الحج</text>
      </g>

      <g class="surah-group" data--h-bstatus="0OBSERVED">
         <path class="surah-path" d="m 399.90039,667.90039 c -1.69133,-0.0618 -3.29797,0.12713 -4.73047,0.70313 -7.464,3.002 -12.66317,14.01948 -16.82617,20.39648 -12.718,19.483 -27.53475,39.765 -32.34375,63 13.576,-2.558 26.122,-5 40,-5 4.623,0 14.45083,1.85766 18.29883,-1.02734 2.884,-2.162 3.76364,-7.83266 5.30664,-10.97266 4.278,-8.708 9.24619,-17.01 14.74219,-25 4.485,-6.519 9.69707,-12.488 14.20507,-19 1.524,-2.201 4.12624,-4.94611 2.61524,-7.78711 -1.315,-2.473 -4.77497,-3.7953 -7.16797,-4.9043 -6.088,-2.82 -12.514,-4.98868 -19,-6.67968 -4.18875,-1.092 -10.02562,-3.54299 -15.09961,-3.72852 z" id="path136" data--h-bstatus="0OBSERVED"></path>
         <text class="surah-name" x="383.81192" y="712.944611" data--h-bstatus="0OBSERVED">الروم</text>
      </g>

      <g class="surah-group" data--h-bstatus="0OBSERVED">
         <path class="surah-path" d="m 819,662 c -17.756,0.366 -35.679,6.06478 -53,9.55078 -7.38,1.485 -17.8835,1.73014 -23.8125,6.86914 C 732.5685,686.75792 730.008,705.085 730,717 c 8.829,-0.183 16.679,-3.72252 25,-6.22852 9.886,-2.978 19.959,-5.24962 30,-7.64062 5.227,-1.244 15.31048,-0.39136 19.39648,-4.06836 2.791,-2.513 2.52429,-10.4555 3.48829,-14.0625 2.274,-8.505 8.14523,-14.888 11.11523,-23 z" id="path135" data--h-bstatus="0OBSERVED"></path>
         <text class="surah-name" x="760.5" y="692.5" data--h-bstatus="0OBSERVED">النور</text>
      </g>

      <g class="surah-group" data--h-bstatus="0OBSERVED">
         <path class="surah-path" d="m 889,657 c -13.805,0 -27.267,0.96916 -41,1.91016 -6.028,0.412 -13.33994,-1.21757 -18.96094,1.52343 -6.722,3.277 -11.7252,13.82141 -14.0332,20.56641 -6.613,19.319 -5.22486,44.022 4.99414,62 16.661,-3.093 35.014,-6.859 52,-7 -1.651,-4.509 -4.73155,-8.366 -6.06055,-13 -4.12,-14.37 -1.05231,-33.511 6.67969,-46 4.594,-7.42 11.40786,-12.94 16.38086,-20 z" id="path133" data--h-bstatus="0OBSERVED"></path>
         <path class="surah-path" d="m 905,657 c -22.559,5.358 -32.65083,26.879 -35.42383,48 -1.15,8.759 0.60678,23.88658 10.42578,27.39258 9.743,3.479 17.79286,-8.29658 21.50586,-15.39258 5.434,-10.387 8.02405,-22.492 9.62305,-34 0.691,-4.969 1.45716,-10.048 0.16016,-15 -1.096,-4.184 -3.81902,-7.545 -6.29102,-11 z" id="path134" data--h-bstatus="0OBSERVED"></path>
         <text class="surah-name" x="824.981689" y="703" data--h-bstatus="0OBSERVED">الشعراء</text>
      </g>

      <g class="surah-group" data--h-bstatus="0OBSERVED">
         <path class="surah-path" d="m 639.10547,651.60352 c -0.66935,-0.0379 -1.3135,0.0175 -1.92188,0.18554 -4.766,1.315 -8.34676,10.31494 -10.75976,14.21094 -3.397,5.487 -6.53355,11.113 -9.18555,17 -1.091,2.421 -2.4998,5.19916 -1.5918,7.91016 1.411,4.216 7.17652,7.32815 10.35352,10.16015 2.709,2.415 5.293,4.90231 9,5.57031 5.639,1.01601 11.738,-1.98023 17,-3.61523 11.768,-3.657 23.496,-7.58739 35,-12.02539 -9.219,-13.14 -20.661,-23.39311 -34,-32.16211 -3.30225,-2.17087 -9.20908,-6.96943 -13.89453,-7.23437 z" id="path132" data--h-bstatus="0OBSERVED"></path>
         <text class="surah-name" x="633.177704" y="686.219147" data--h-bstatus="0OBSERVED">الكهف</text>
      </g>

      <g class="surah-group" data--h-bstatus="0OBSERVED">
         <path class="surah-path" d="M 510.96094,647.84766 C 507.33294,647.76666 503.239,650.6 500,652 c -11.658,5.038 -21.827,12.39577 -32,19.88477 -2.726,2.007 -11.5883,6.33887 -11.6543,10.17187 -0.041,2.325 3.10016,3.8492 4.66016,5.0332 4.325,3.283 8.1915,7.02916 11.97852,10.91016 3.67099,3.761 6.78053,7.85947 10.01953,11.98047 1.432,1.822 3.23189,4.37781 5.83789,4.38281 3.937,0.008 9.16685,-7.96956 12.17382,-10.35156 6.16001,-4.881 18.00379,-8.83569 21.55079,-16.05469 2.482,-5.05 0.96275,-11.66203 0.13671,-16.95703 -0.91699,-5.875 -2.68042,-12.79614 -5.60742,-17.99414 -1.342,-2.384 -3.10276,-5.0902 -6.13476,-5.1582 z" id="path131" data--h-bstatus="0OBSERVED"></path>
         <text class="surah-name" x="482.135178" y="687.104614" data--h-bstatus="0OBSERVED">النحل</text>
      </g>

      <g class="surah-group" data--h-bstatus="0OBSERVED">
         <path class="surah-path" d="M 563.13281,635.16602 C 547.91369,635.86362 532.71656,638.74906 519,644 c 4.123,8.873 7.88416,17.233 9.41016,27 0.518,3.321 -0.68064,10.71766 2.19336,12.97266 2.22,1.74 5.94548,0.68867 8.39648,0.13867 6.313,-1.418 12.561,-3.03517 19,-3.82617 10.281,-1.262 22.03,-0.30302 32,2.45898 6.434,1.783 12.513,4.71886 19,6.25586 4.428,-7.78 7.39065,-16.279 12.01562,-24 3.65103,-6.096 8.93438,-11.082 10.98438,-18 -11.447,-3.124 -22.234,-7.45017 -34,-9.57617 -6.388,-1.15425 -12.99639,-1.90321 -19.69531,-2.23242 -5.0242,-0.24692 -10.09884,-0.25793 -15.17188,-0.0254 z" id="path130" data--h-bstatus="0OBSERVED"></path>
         <text class="surah-name" x="559.5" y="662.999329" data--h-bstatus="0OBSERVED">الإسراء</text>
      </g>

      <g class="surah-group" data--h-bstatus="0OBSERVED">
         <path class="surah-path" d="m 673.09375,618.16016 c -0.36253,-0.006 -0.72725,0.0211 -1.09375,0.0879 -3.03,0.552 -5.721,3.2965 -8,5.1875 -5.331,4.424 -11.04108,8.77129 -15.95508,13.65429 -2.121,2.109 -5.4212,5.39527 -3.9082,8.69727 1.547,3.377 6.88128,4.89906 9.86328,6.66406 7.114,4.21 13.939,9.00067 20,14.63867 4.972,4.626 9.27052,9.8033 13.72852,14.9043 2.551,2.919 4.99748,6.04589 9.27148,5.33789 6.973,-1.156 14.38305,-4.90772 20.99805,-7.38672 2.191,-0.821 5.45792,-1.7287 6.29492,-4.2207 1.311,-3.904 -3.0072,-9.60161 -4.9082,-12.72461 C 712.84277,652.252 704.785,641.74669 695,633.80469 c -5.025,-4.078 -9.84562,-8.57808 -15.01562,-12.45508 -1.93814,-1.45338 -4.35292,-3.14646 -6.89063,-3.18945 z" id="path129" data--h-bstatus="0OBSERVED"></path>
         <text class="surah-name" x="671.144501" y="655.796448" data--h-bstatus="0OBSERVED">الحجر</text>
      </g>

      <g class="surah-group" data--h-bstatus="0OBSERVED">
         <path class="surah-path" d="m 477,613.14844 c -5.867,-0.24 -12.012,3.80751 -17,6.47851 -11.283,6.04 -21.856,11.84999 -32,19.70899 -8.785,6.806 -23.333,13.04706 -26,24.66406 11.307,0.233 21.698,3.58395 32,8.00195 4.557,1.954 10.96,6.97988 16,6.79688 6.392,-0.231 14.218,-9.66305 19,-13.37305 12.346,-9.579 26.581,-17.42278 41,-23.42578 -4.418,-8.869 -12.27591,-16.61594 -20.00391,-22.71094 -3.656,-2.883 -8.18209,-5.94362 -12.99609,-6.14062 z" id="path128" data--h-bstatus="0OBSERVED"></path>
         <text class="surah-name" x="441" y="651.970978" data--h-bstatus="0OBSERVED">يوسف</text>
      </g>

      <g class="surah-group" data--h-bstatus="0OBSERVED">
         <path class="surah-path" d="m 292,613 c -20.039,20.039 -35.17041,43.336 -44.69141,70 -4.045,11.33 -7.30059,22.887 -7.30859,35 10.338,-4.433 19.672,-11.01905 30,-15.49805 11.097,-4.813 23.084,-7.39695 34,-12.50195 -2.235,-5.522 -7.32565,-9.083 -10.64062,-14 -5.23902,-7.77 -7.64854,-16.713 -8.26954,-26 -0.533,-7.953 1.34886,-16.424 3.63086,-24 1.245,-4.133 4.1703,-8.696 3.2793,-13 z" id="path127" data--h-bstatus="0OBSERVED"></path>
         <text class="surah-name" x="258" y="679.5" data--h-bstatus="0OBSERVED">التوبة</text>
      </g>

      <g class="surah-group" data--h-bstatus="0OBSERVED">
         <path class="surah-path" d="m 608.46484,595.90039 c -1.51075,0.0111 -3.00493,0.15564 -4.46093,0.49414 -4.847,1.127 -7.23753,5.31342 -11.01953,8.10742 C 587.77535,608.34995 580.374,610.479 574,611 c 1.426,5.217 -0.0948,13.30573 3.70312,17.42773 4.16501,4.522 13.68588,3.56202 19.29688,4.29102 13.934,1.811 27.632,6.00725 41,10.28125 5.104,-7.481 11.02995,-13.91584 18.00195,-19.71484 C 659.93795,620.01116 665.411,618.083 667,613 c -14.977,-6.235 -28.824,-12.54509 -45,-15.24609 -4.314,-0.72075 -9.00291,-1.88694 -13.53516,-1.85352 z" id="path126" data--h-bstatus="0OBSERVED"></path>
         <text class="surah-name" x="604.5" y="619.4498291015625" data--h-bstatus="0OBSERVED">إبراهيم</text>
      </g>

      <g class="surah-group" data--h-bstatus="0OBSERVED">
         <path class="surah-path" d="m 531.38086,595.63477 c -3.80833,-0.1292 -7.79686,1.71529 -11.38086,2.56054 -11.525,2.719 -22.942,5.53869 -34,9.80469 v 2 c 7.541,5.422 15.06016,11.36192 21.41016,18.16992 2.782,2.983 5.64167,8.60478 9.76367,9.80078 5.216,1.515 12.71017,-1.8747 17.82617,-2.9707 11.705,-2.507 23.023,-4 35,-4 0,-5.082 1.74033,-14.49081 -2.51367,-18.25781 -3.585,-3.174 -11.04233,-2.79758 -15.48633,-5.01758 -6.298,-3.147 -12.088,-10.51325 -19,-11.90625 -0.535,-0.10775 -1.07509,-0.16514 -1.61914,-0.18359 z" id="path125" data--h-bstatus="0OBSERVED"></path>
         <text class="surah-name" x="518.176208" y="621.991211" data--h-bstatus="0OBSERVED">الرعد</text>
      </g>

      <g class="surah-group" data--h-bstatus="0OBSERVED">
         <path class="surah-path" d="m 375,564 c -10.97,0.234 -22.476,6.83297 -32,11.91797 -11.199,5.979 -23.86425,12.05787 -32.90625,21.17187 -8.822,8.894 -14.56736,21.92416 -17.56836,33.91016 -4.569,18.249 -0.89539,46.01734 18.47461,55.52734 3.961,1.944 8.904,-0.0593 13,-0.77734 10.338,-1.812 20.519,-3.923 31,-4.75 -7.644,-26.802 -7.43416,-55.475 2.08984,-82 4.405,-12.269 11.62116,-23.66 17.91016,-35 z" id="path124" data--h-bstatus="0OBSERVED"></path>
         <text class="surah-name" x="307.88028" y="637.676575" data--h-bstatus="0OBSERVED">يونس</text>
      </g>

      <g class="surah-group" data--h-bstatus="0OBSERVED">
         <path class="surah-path" d="m 402.34961,556.02539 c -1.65811,-0.0734 -3.44211,0.0805 -5.34961,0.49414 -11.542,2.502 -18.72248,11.88647 -24.39648,21.48047 -11.862,20.059 -15.2726,43.292 -17.4336,66 -0.821,8.622 -0.58033,20.12805 3.38867,27.99805 1.697,3.366 5.20241,7.71167 9.44141,7.26367 9.911,-1.048 17.65241,-12.77372 22.31641,-20.26172 10.236,-16.436 14.31675,-35.598 19.59375,-54 2.4,-8.372 6.54706,-16.307 7.78906,-25 1.68612,-11.80025 -3.74286,-23.46053 -15.34961,-23.97461 z" id="path123" data--h-bstatus="0OBSERVED"></path>
         <text class="surah-name" x="375.39444" y="617.6507568359375" data--h-bstatus="0OBSERVED">هود</text>
      </g>

      <g class="surah-group" data--h-bstatus="0OBSERVED">
         <path class="surah-path" d="m 508.45898,539.93164 c -5.2145,0.13375 -10.41498,0.90066 -15.45898,2.22266 -2.81,0.737 -7.10216,1.15876 -9.41016,3.00976 -3.814,3.058 -4.2369,13.28794 -5.0039,17.83594 -2.519,14.956 -7.93094,29.749 -8.58594,45 12.894,-3.661 24.957,-9.82447 38,-13.10547 5.867,-1.476 17.05327,-1.68005 21.69727,-5.49805 4.256,-3.499 4.71182,-13.27648 5.54882,-18.39648 0.953,-5.832 4.43157,-19.17356 0.72657,-24.35156 -2.238,-3.128 -8.44966,-4.31053 -11.97266,-5.14453 -5.098,-1.206 -10.32652,-1.70602 -15.54102,-1.57227 z" id="path122" data--h-bstatus="0OBSERVED"></path>
         <text class="surah-name" x="487.821381" y="573.9552917480469" data--h-bstatus="0OBSERVED">الأعراف</text>
      </g>

      <g class="surah-group" data--h-bstatus="0OBSERVED">
         <path class="surah-path" d="m 560,521 c -4.342,15.906 -11.76583,31.075 -16.42383,47 -1.74,5.947 -5.30489,13.694 -3.83789,20 1.536,6.597 7.58772,10.89147 13.26172,13.73047 13.183,6.597 30.00247,7.12898 40.60547,-4.91602 4.716,-5.359 4.29769,-14.14945 5.67969,-20.81445 2.026,-9.78 6.12684,-18.753 9.71484,-28 -10.162,-2.856 -20.89338,-2.51583 -29.98438,-8.54883 C 571.53265,534.48617 568.05,524.833 560,521 Z" id="path121" data--h-bstatus="0OBSERVED"></path>
         <text class="surah-name" x="558.196136" y="573.680603" data--h-bstatus="0OBSERVED">الأنفال</text>
      </g>

      <g class="surah-group" data--h-bstatus="0OBSERVED">
         <path class="surah-path" d="m 400.90039,503.81055 c -4.0005,-0.12043 -8.50964,1.50697 -11.90039,2.48047 -13.268,3.808 -26.418,9.98376 -37,19.00976 -3.356,2.863 -11.04103,8.72422 -10.83203,13.69922 0.176,4.157 6.27325,9.097 8.90625,12 3.115,3.434 6.94373,9.84905 11.92773,10.49805 4.064,0.528 9.22105,-2.21496 12.99805,-3.50196 13.79,-4.699 33.55833,-13.96718 44.36133,1.00782 6.897,9.562 4.35033,20.54709 1.48633,30.99609 -3.963,14.459 -9.50577,28.595 -13.75977,43 -2.082,7.051 -5.06589,12.464 -5.08789,20 11.784,-8.611 23.633,-17.85522 36,-25.57422 5.109,-3.189 15.04481,-7.20895 17.88281,-12.75195 1.207,-2.358 0.062,-5.27883 -0.45898,-7.67383 -1.083,-4.984 -1.80497,-10.082 -3.16797,-15 -6.35,-22.905 -20.38703,-43.775 -32.45703,-64 -3.355,-5.622 -6.48655,-11.36305 -9.81055,-16.99805 -1.352,-2.293 -2.75043,-5.25343 -5.3164,-6.39843 -1.16026,-0.51725 -2.43799,-0.75283 -3.77149,-0.79297 z" id="path120" data--h-bstatus="0OBSERVED"></path>
         <text class="surah-name" x="366.790161" y="542.402115" data--h-bstatus="0OBSERVED">آل عمران</text>
      </g>

      <g class="surah-group" data--h-bstatus="0OBSERVED">
         <path class="surah-path" d="m 519.17969,470.45508 c -3.31547,0.0342 -6.46319,0.27645 -9.17969,0.5957 -4.69,0.551 -11.27833,1.78911 -13.98633,6.16211 -2.921,4.718 -3.14098,13.33911 -4.20898,18.78711 -2.792,14.239 -7.17369,29.518 -7.80469,44 11.806,-2.443 22.718,-6.33127 35,-4.57227 4.407,0.631 8.761,1.42588 13,2.79688 1.88,0.608 4.50239,1.8883 6.40039,0.6543 3.082,-2.003 2.57044,-9.66291 3.02344,-12.87891 1.555,-11.028 2.99578,-22.075 5.17578,-33 0.825,-4.13 2.75487,-9.91935 -0.20313,-13.60938 -5.8185,-7.2585 -17.27039,-9.03806 -27.21679,-8.93554 z" id="path119" data--h-bstatus="0OBSERVED"></path>
         <text class="surah-name" x="503.99173" y="509.225479" data--h-bstatus="0OBSERVED">النساء</text>
      </g>

      <g class="surah-group" data--h-bstatus="0OBSERVED">
         <path class="surah-path" d="m 640,460 c -21.716,4.979 -40.75816,15.41622 -56.82812,30.69922 -5.77801,5.494 -12.44427,11.84678 -15.69727,19.30078 -2.08,4.764 2.23114,9.187 4.61914,13 6.814,10.883 15.70425,14.26709 27.90625,16.24609 3.903,0.633 8.89806,1.57455 12.78906,0.43555 4.916,-1.439 8.89878,-10.02364 12.30078,-13.68164 7.65,-8.223 16.68316,-14.692 25.91016,-21 -6.678,-14.304 -13.016,-27.756 -10,-44 z" id="path118" data--h-bstatus="0OBSERVED"></path>
         <text class="surah-name" x="595.961884" y="505.10788" data--h-bstatus="0OBSERVED">المائدة</text>
      </g>

      <g class="surah-group" data--h-bstatus="0OBSERVED">
         <path class="surah-path" d="M 711.38672,454.30469 C 689.89073,453.52525 668.666,456.287 647,458 c -0.528,12.291 -2.23033,21.359 3.38867,33 1.498,3.104 3.6221,8.23991 6.8711,9.87891 3.175,1.601 7.67623,-0.90552 10.74023,-1.85352 7.421,-2.297 15.234,-3.64633 23,-3.98633 13.585,-0.595 26.188,0.83486 39,5.50586 5.55,2.023 10.459,5.41108 16,7.45508 3.457,-5.128 6.63967,-10.328 9.13867,-16 1.671,-3.793 3.17521,-7.835 3.53321,-12 C 760.00387,464.535 745.621,458.55255 733,456.43555 c -7.25175,-1.2165 -14.44795,-1.87105 -21.61328,-2.13086 z" id="path117" data--h-bstatus="0OBSERVED"></path>
         <text class="surah-name" x="686.550262" y="481.0845642089844" data--h-bstatus="0OBSERVED">الأنعام</text>
      </g>

      <g class="surah-group" data--h-bstatus="0OBSERVED">
         <path class="surah-path" d="m 371,409 c -8.941,1.74 -17.845,4.89375 -26,8.96875 -5.645,2.821 -10.825,6.47425 -17,8.03125 0.868,10.622 3.87839,21.831 7.02539,32 1.845,5.96 4.42861,11.744 4.97461,18 -6.262,-1.117 -11.356,-4.98923 -17,-7.74023 -11.336,-5.525 -23.308,-9.31482 -36,-9.25782 -4.018,0.018 -9.14352,-0.0494 -12.85352,1.72657 -3.195,1.529 -3.55662,5.13048 -4.01562,8.27148 l -2.85938,20 c -0.364,2.555 -1.37395,6.18808 -0.002,8.58008 2.598,4.533 13.14247,5.74437 17.73047,7.48437 12.041,4.567 24.211,10.60486 35,17.63086 4.196,2.733 9.97594,9.5861 14.96094,10.2461 2.729,0.361 4.54108,-2.22327 6.20508,-3.94727 3.948,-4.091 8.15893,-7.73175 12.83593,-10.96875 C 367.62095,508.59639 385.08,499.349 402,499 396.002,484.594 387.04994,471.61 381.46094,457 375.52494,441.484 373.06,425.301 371,409 Z" id="path116" data--h-bstatus="0OBSERVED"></path>
         <text class="surah-name" x="334.285568" y="497.987762" data--h-bstatus="0OBSERVED">الفاتحة</text>
      </g>

      <g class="surah-group" data--h-bstatus="0OBSERVED">
         <path class="surah-path" d="m 535.14453,400.01367 c -5.10178,0.20701 -10.19509,1.12946 -15.14453,2.36133 -3.323,0.827 -7.98739,1.46377 -10.40039,4.13477 -3.402,3.764 -2.64252,11.74223 -3.60352,16.49023 -1.762,8.71 -4.11003,17.22 -5.58203,26 -1.001,5.969 -1.01806,12.138 -2.41406,18 9.079,1.511 19.508,-2.39194 29,-1.96094 8.151,0.37 14.529,4.37194 22,6.96094 4.389,-14.445 5.36416,-31.044 7.57812,-46 0.81301,-5.493 3.06169,-13.45906 0.67969,-18.78906 -1.686,-3.77 -6.55981,-5.34741 -10.25781,-6.19141 -2.237,-0.511 -4.49259,-0.8192 -6.75586,-0.95898 -1.69745,-0.10484 -3.39902,-0.11588 -5.09961,-0.0469 z" id="path2" data--h-bstatus="0OBSERVED"></path>
         <text class="surah-name" x="518.160614" y="437.985046" data--h-bstatus="0OBSERVED">البقرة</text>
      </g>

   </g>
</svg>
